<?xml version="1.0" encoding="iso-8859-1"?>
<!-- Generator: Adobe Illustrator 19.0.0, SVG Export Plug-In . SVG Version: 6.00 Build 0)  -->
<svg version="1.1" id="Capa_1" xmlns="http://www.w3.org/2000/svg" xmlns:xlink="http://www.w3.org/1999/xlink" x="0px" y="0px"
	 viewBox="0 0 512 512" style="enable-background:new 0 0 512 512;" xml:space="preserve">
<circle style="fill:#FF9518;" cx="256" cy="256" r="245"/>
<path style="fill:#293D7C;" d="M246.506,67.619H60.643c-5.482,0-9.968,4.485-9.968,9.967v49.837h195.831V67.619z"/>
<path style="fill:#1A2B63;" d="M80.486,67.619H60.643c-5.482,0-9.968,4.485-9.968,9.967v49.837h19.843V77.587
	C70.518,72.105,75.003,67.619,80.486,67.619z"/>
<path style="fill:#E26693;" d="M84.423,107.442c-2.217,0-4.378-0.896-5.944-2.453c-1.557-1.567-2.452-3.728-2.452-5.944
	c0-2.206,0.896-4.367,2.452-5.934c1.566-1.568,3.728-2.463,5.944-2.463c2.205,0,4.377,0.895,5.933,2.463
	c1.567,1.567,2.464,3.727,2.464,5.934c0,2.216-0.896,4.377-2.464,5.944C88.8,106.546,86.628,107.442,84.423,107.442z"/>
<path style="fill:#FFAF10;" d="M111.957,107.442c-2.206,0-4.378-0.896-5.934-2.464c-1.566-1.556-2.462-3.716-2.462-5.932
	c0-2.206,0.896-4.367,2.462-5.934c1.568-1.568,3.729-2.463,5.934-2.463c2.216,0,4.376,0.895,5.945,2.463
	c1.556,1.567,2.451,3.727,2.451,5.934c0,2.205-0.896,4.377-2.451,5.932C116.333,106.546,114.173,107.442,111.957,107.442z"/>
<path style="fill:#37C47A;" d="M139.503,107.442c-2.217,0-4.378-0.896-5.934-2.453c-1.567-1.567-2.463-3.728-2.463-5.944
	c0-2.206,0.896-4.367,2.463-5.934c1.556-1.568,3.717-2.463,5.934-2.463c2.205,0,4.377,0.895,5.933,2.463
	c1.567,1.567,2.464,3.727,2.464,5.934c0,2.216-0.896,4.377-2.464,5.944C143.869,106.546,141.708,107.442,139.503,107.442z"/>
<path style="fill:#AEC1ED;" d="M251.506,169.663c-2.75,0-5-2.25-5-5v-37.24H50.675v262.266
	c13.429,20.581,29.861,39.021,48.687,54.692h313.277c18.825-15.671,35.258-34.11,48.687-54.692V169.663H251.506z"/>
<path style="fill:#85A0DD;" d="M70.518,383.204V127.423H50.675v262.266c0.142,0.216,0.287,0.43,0.429,0.646L70.518,383.204z"/>
<path style="fill:#D9EAFC;" d="M251.506,169.663c-2.75,0-5-2.25-5-5v-12.322H80.594c-2.75,0-5,2.25-5,5V381.34l43.154-15.85
	c0.435-0.159,0.835-0.244,1.157-0.244s0.54,0.077,0.646,0.228c0.161,0.231,0.215,0.799-0.116,1.701l-19.206,52.288h330.179
	c2.75,0,5-2.25,5-5v-244.8L251.506,169.663L251.506,169.663z"/>
<path style="fill:#FFD00D;" d="M245.506,165.663c0,2.75,2.25,5,5,5H507c2.75,0,5-2.25,5-5V30.001c0-2.75-2.25-5-5-5H250.506
	c-2.75,0-5,2.25-5,5V165.663z"/>
<path style="fill:#FFAF10;" d="M265.349,165.663V30.001c0-2.75,2.25-5,5-5h-19.843c-2.75,0-5,2.25-5,5v135.662c0,2.75,2.25,5,5,5
	h19.843C267.599,170.663,265.349,168.413,265.349,165.663z"/>
<path style="fill:#B7092B;" d="M512,30.001c0-2.75-2.25-5-5-5h-47.17v49.17c0,1.657,1.343,3,3,3H512V30.001z"/>
<g>
	<path style="fill:#445EA0;" d="M405.557,205.489H232.03c-4.143,0-7.5-3.358-7.5-7.5s3.357-7.5,7.5-7.5h173.527
		c4.143,0,7.5,3.358,7.5,7.5S409.699,205.489,405.557,205.489z"/>
	<path style="fill:#445EA0;" d="M405.557,230.987H232.03c-4.143,0-7.5-3.358-7.5-7.5s3.357-7.5,7.5-7.5h173.527
		c4.143,0,7.5,3.358,7.5,7.5S409.699,230.987,405.557,230.987z"/>
	<path style="fill:#445EA0;" d="M348.846,256.486H232.03c-4.143,0-7.5-3.358-7.5-7.5s3.357-7.5,7.5-7.5h116.816
		c4.143,0,7.5,3.358,7.5,7.5C356.346,253.128,352.989,256.486,348.846,256.486z"/>
	<path style="fill:#445EA0;" d="M240.471,385.978H113.529l-5.51,15h132.452c4.143,0,7.5-3.358,7.5-7.5
		S244.614,385.978,240.471,385.978z"/>
	<path style="fill:#445EA0;" d="M240.471,361.98H106.972c-4.143,0-7.5,3.358-7.5,7.5c0,1.021,0.206,1.992,0.574,2.879l18.702-6.869
		c0.435-0.159,0.835-0.244,1.157-0.244s0.54,0.077,0.646,0.228c0.161,0.231,0.215,0.799-0.116,1.701l-3.601,9.804h123.637
		c4.143,0,7.5-3.358,7.5-7.5S244.614,361.98,240.471,361.98z"/>
	<path style="fill:#445EA0;" d="M240.471,352.981H106.972c-4.143,0-7.5-3.358-7.5-7.5s3.357-7.5,7.5-7.5h133.499
		c4.143,0,7.5,3.358,7.5,7.5S244.614,352.981,240.471,352.981z"/>
	<path style="fill:#445EA0;" d="M405.029,400.978H271.53c-4.143,0-7.5-3.358-7.5-7.5s3.357-7.5,7.5-7.5h133.499
		c4.143,0,7.5,3.358,7.5,7.5S409.171,400.978,405.029,400.978z"/>
	<path style="fill:#445EA0;" d="M405.029,376.98H271.53c-4.143,0-7.5-3.358-7.5-7.5s3.357-7.5,7.5-7.5h133.499
		c4.143,0,7.5,3.358,7.5,7.5S409.171,376.98,405.029,376.98z"/>
	<path style="fill:#445EA0;" d="M405.029,352.981H271.53c-4.143,0-7.5-3.358-7.5-7.5s3.357-7.5,7.5-7.5h133.499
		c4.143,0,7.5,3.358,7.5,7.5S409.171,352.981,405.029,352.981z"/>
</g>
<path style="fill:#293D7C;" d="M121.373,367.52c0.948-2.582-0.389-3.918-2.97-2.969L5.956,405.853
	c-2.581,0.948-3.103,3.315-1.158,5.259l21.927,21.926c1.944,1.945,1.944,5.126,0,7.071L1.458,465.375
	c-1.944,1.945-1.944,5.126,0,7.071l12.021,12.02c1.944,1.945,5.126,1.945,7.07,0L45.816,459.2c1.944-1.945,5.126-1.945,7.07,0
	l21.926,21.925c1.944,1.945,4.311,1.424,5.259-1.158L121.373,367.52z"/>
<path style="fill:#1A2B63;" d="M15.776,422.089l98.896-36.325l6.701-18.244c0.948-2.582-0.389-3.918-2.97-2.969L5.956,405.853
	c-2.581,0.948-3.103,3.315-1.158,5.259L15.776,422.089z"/>
<g>
	<path style="fill:#445EA0;" d="M205,262c0,2.75-2.25,5-5,5H100c-2.75,0-5-2.25-5-5v-76c0-2.75,2.25-5,5-5h100c2.75,0,5,2.25,5,5
		V262z"/>
	<path style="fill:#445EA0;" d="M415.245,319.497c0,2.75-2.25,5-5,5h-308.49c-2.75,0-5-2.25-5-5v-35.503c0-2.75,2.25-5,5-5h308.49
		c2.75,0,5,2.25,5,5V319.497z"/>
</g>
<g>
	<path style="fill:#293D7C;" d="M114.843,262v-76c0-2.75,2.25-5,5-5H100c-2.75,0-5,2.25-5,5v76c0,2.75,2.25,5,5,5h19.843
		C117.093,267,114.843,264.75,114.843,262z"/>
	<path style="fill:#293D7C;" d="M116.598,319.497v-35.503c0-2.75,2.25-5,5-5h-19.843c-2.75,0-5,2.25-5,5v35.503c0,2.75,2.25,5,5,5
		h19.843C118.848,324.497,116.598,322.247,116.598,319.497z"/>
</g>
<g>
	<path style="fill:#1A2B63;" d="M363.556,143h-22c-4.143,0-7.5-3.358-7.5-7.5v-69c0-4.142,3.357-7.5,7.5-7.5h22
		c12.406,0,22.5,10.093,22.5,22.5v39C386.056,132.907,375.962,143,363.556,143z M349.056,128h14.5c4.136,0,7.5-3.364,7.5-7.5v-39
		c0-4.136-3.364-7.5-7.5-7.5h-14.5V128z"/>
	<path style="fill:#1A2B63;" d="M425.556,143h-27c-4.143,0-7.5-3.358-7.5-7.5s3.357-7.5,7.5-7.5h27c1.355,0,2.5-1.145,2.5-2.5V111
		c0-1.355-1.145-2.5-2.5-2.5h-17c-9.649,0-17.5-7.851-17.5-17.5V76.5c0-9.649,7.851-17.5,17.5-17.5h27c4.142,0,7.5,3.358,7.5,7.5
		s-3.358,7.5-7.5,7.5h-27c-1.355,0-2.5,1.145-2.5,2.5V91c0,1.355,1.145,2.5,2.5,2.5h17c9.649,0,17.5,7.851,17.5,17.5v14.5
		C443.056,135.15,435.205,143,425.556,143z"/>
	<path style="fill:#1A2B63;" d="M306.556,59h-7c-12.406,0-22.5,10.093-22.5,22.5v54c0,4.142,3.357,7.5,7.5,7.5
		c4.142,0,7.5-3.358,7.5-7.5v-26.833h22V135.5c0,4.142,3.357,7.5,7.5,7.5c4.142,0,7.5-3.358,7.5-7.5v-54
		C329.056,69.093,318.962,59,306.556,59z M292.056,93.667V81.5c0-4.136,3.364-7.5,7.5-7.5h7c4.136,0,7.5,3.364,7.5,7.5v12.167
		H292.056z"/>
</g>
<path style="fill:#E26693;" d="M496.522,51.086l6.783-6.782c2.93-2.929,2.93-7.678,0.001-10.606
	c-2.929-2.929-7.678-2.929-10.607-0.001l-6.785,6.784l-6.784-6.784c-2.928-2.929-7.677-2.929-10.607,0.001
	c-2.929,2.929-2.929,7.678,0.001,10.606l6.783,6.782l-6.783,6.782c-2.93,2.929-2.93,7.678-0.001,10.606
	c1.465,1.465,3.384,2.197,5.304,2.197c1.919,0,3.839-0.732,5.303-2.196l6.784-6.784l6.785,6.784
	c1.464,1.464,3.384,2.196,5.303,2.196s3.839-0.732,5.304-2.197c2.929-2.929,2.929-7.678-0.001-10.606L496.522,51.086z"/>
<g>
</g>
<g>
</g>
<g>
</g>
<g>
</g>
<g>
</g>
<g>
</g>
<g>
</g>
<g>
</g>
<g>
</g>
<g>
</g>
<g>
</g>
<g>
</g>
<g>
</g>
<g>
</g>
<g>
</g>
</svg>
