<!DOCTYPE svg PUBLIC "-//W3C//DTD SVG 20010904//EN" "http://www.w3.org/TR/2001/REC-SVG-20010904/DTD/svg10.dtd">
<svg version="1.0" xmlns="http://www.w3.org/2000/svg" width="1600px" height="273px" viewBox="0 0 16000 2730" preserveAspectRatio="xMidYMid meet">
<g id="layer101" fill="#f4f4f4" stroke="none">
 <path d="M0 2575 c0 -92 4 -155 10 -155 5 0 17 -8 27 -18 36 -37 160 -130 244 -183 47 -30 94 -60 105 -67 10 -6 28 -16 39 -21 11 -5 43 -22 70 -38 28 -16 91 -46 140 -67 50 -21 108 -46 130 -55 98 -42 350 -114 520 -148 131 -26 589 -26 720 0 172 34 504 133 529 158 6 5 16 9 24 9 14 0 43 11 132 52 25 11 59 26 75 33 31 14 113 52 275 128 245 116 401 187 495 225 391 158 670 217 1035 217 263 0 500 -32 715 -95 39 -12 84 -25 100 -29 17 -4 44 -15 62 -24 18 -10 37 -17 43 -17 7 0 26 -6 43 -14 18 -7 73 -31 122 -52 50 -21 95 -41 100 -45 6 -4 57 -31 115 -61 133 -69 221 -118 240 -132 8 -6 35 -22 60 -36 25 -13 63 -35 85 -49 22 -14 51 -32 65 -40 49 -27 82 -46 98 -56 9 -5 58 -34 107 -63 50 -29 97 -57 105 -62 71 -43 340 -177 430 -215 36 -15 74 -31 85 -36 71 -31 363 -122 470 -147 421 -96 909 -97 1350 -1 147 32 319 80 399 110 27 11 53 19 59 19 17 0 446 159 522 194 17 7 50 21 75 31 25 9 65 25 90 35 25 10 88 35 140 55 52 20 114 45 138 56 23 10 47 19 53 19 6 0 25 6 42 13 43 18 125 47 162 57 17 5 44 13 60 18 73 25 166 51 235 66 275 59 274 59 535 60 222 0 262 -2 360 -22 142 -30 218 -49 280 -72 28 -11 62 -22 78 -26 15 -3 30 -10 33 -15 3 -5 11 -9 19 -9 16 0 162 -70 220 -105 22 -13 54 -32 70 -41 168 -94 468 -357 676 -595 137 -157 140 -161 202 -239 33 -41 65 -79 71 -85 7 -5 38 -44 71 -85 32 -41 66 -83 74 -92 32 -35 48 -55 126 -148 112 -133 335 -355 432 -428 45 -34 84 -62 87 -62 3 0 22 -11 42 -25 84 -57 208 -107 337 -136 83 -18 117 -21 225 -16 117 5 177 16 312 58 110 34 313 149 434 247 115 93 177 152 319 304 l57 62 0 1028 0 1028 -8000 0 -8000 0 0 -155z"/>
 </g>

</svg>