<?xml version="1.0" encoding="UTF-8" standalone="no"?>
<svg
   xmlns:dc="http://purl.org/dc/elements/1.1/"
   xmlns:cc="http://creativecommons.org/ns#"
   xmlns:rdf="http://www.w3.org/1999/02/22-rdf-syntax-ns#"
   xmlns:svg="http://www.w3.org/2000/svg"
   xmlns="http://www.w3.org/2000/svg"
   viewBox="0 0 2553.9468 2017.0933"
   height="2017.0933"
   width="2553.9468"
   xml:space="preserve"
   id="svg2"
   version="1.1"><metadata
     id="metadata8"><rdf:RDF><cc:Work
         rdf:about=""><dc:format>image/svg+xml</dc:format><dc:type
           rdf:resource="http://purl.org/dc/dcmitype/StillImage" /></cc:Work></rdf:RDF></metadata><defs
     id="defs6" /><g
     transform="matrix(1.3333333,0,0,-1.3333333,0,2017.0933)"
     id="g10"><g
       transform="scale(0.1)"
       id="g12"><path
         id="path14"
         style="fill:#325f46;fill-opacity:1;fill-rule:nonzero;stroke:none"
         d="m 12326.7,4487.2 c -1.2,2.9 -3.1,231.8 -61.2,340.3 0,0 -10.8,25.6 0,20.1 10.9,-5.4 53.4,-56.2 65.8,-105.8 12.4,-49.6 28,-56.9 48.1,-90.3 20.2,-33.3 23.3,-243.3 22.5,-246.5 -0.8,-3.1 -31,-3.8 -32.5,0 -1.6,3.9 -42.7,82.2 -42.7,82.2" /><path
         id="path16"
         style="fill:#243b2d;fill-opacity:1;fill-rule:nonzero;stroke:none"
         d="m 12401.8,4405 c -0.2,-0.7 -2.4,-1.4 -5.5,-1.9 l -58.9,235.2 c -8,62.7 -21.6,132 -45.3,180.8 15.2,-20.4 32,-49 39.1,-77.3 12.4,-49.6 28,-56.9 48.1,-90.3 20.2,-33.3 23.3,-243.4 22.5,-246.5" /><path
         id="path18"
         style="fill:#325f46;fill-opacity:1;fill-rule:nonzero;stroke:none"
         d="m 12414.7,4728.9 c 0,0 -15.9,121.1 -15.9,157.5 0,36.4 -4.6,113.2 0,117 4.7,3.9 6.8,3.9 6.9,-13.1 0.1,-17.1 52,-257.4 64.4,-281.4 12.4,-24 -6.2,-48.8 11.7,-116.3 17.8,-67.4 78.6,-149.6 34.6,-141.8 -43.9,7.7 -120.7,39.5 -108.3,106.9 12.4,67.5 6.6,171.2 6.6,171.2" /><path
         id="path20"
         style="fill:#243b2d;fill-opacity:1;fill-rule:nonzero;stroke:none"
         d="m 12477.2,4487.2 c 1.5,6.2 -18.7,151.9 -8.6,197.7 10.1,45.7 24,65.1 18.6,130.2 -5.4,65.1 5.4,134.8 11.6,136.4 6.2,1.6 11.6,-58.1 11.6,-90.7 0,-32.5 10.1,-149.6 13.2,-168.2 3.1,-18.6 -46.4,-205.4 -46.4,-205.4" /><path
         id="path22"
         style="fill:#325f46;fill-opacity:1;fill-rule:nonzero;stroke:none"
         d="m 12477.2,4487.2 c 0,0 3,138.8 35.6,211.6 32.5,72.9 44.9,173.6 44.9,211.6 0,38 17.9,161.7 17.9,170 0,8.3 3.8,8.3 9.2,-5.7 5.5,-13.9 0,-196.8 0,-256.5 0,-59.7 -8.5,-121.7 -12.7,-159.7 -4.3,-38 -71,-261.8 -89.6,-256.1 -18.6,5.8 -42.6,36 -35.6,43.7 7,7.8 30.3,41.1 30.3,41.1" /><path
         id="path24"
         style="fill:#325f46;fill-opacity:1;fill-rule:nonzero;stroke:none"
         d="m 12842.2,5079.4 c 0,0 -5.4,3.9 -11.2,-3.5 -5.9,-7.4 -166.3,-245.7 -195.8,-317.6 l 4.7,-81.2 57.3,114.7 145,287.6" /><path
         id="path26"
         style="fill:#42845f;fill-opacity:1;fill-rule:nonzero;stroke:none"
         d="m 12401.9,4372.5 c -2.7,0.5 -5.6,1 -8.6,1.7 -4,0.9 -8,1.9 -12.1,3 -9.3,2.6 -16.3,0.5 -21.7,-1.7 -5.7,-2.2 -9.6,-4.4 -12.5,-1.3 -7.7,8.6 -52,99 -68.3,121.5 -16.3,22.5 -23.3,58.2 -27.9,72.9 -4.7,14.7 -30.3,82.2 -27.9,95.3 1.9,11 -1,24 -2.4,34.8 -1.9,15.7 -4.2,31.3 -6.5,46.9 -0.6,3.8 -2.5,9.7 -1.4,11.9 0.6,1.1 1.9,1.2 4.5,-0.3 7.3,-4.2 12.5,-20.7 15.9,-28.2 3,-6.9 10,-28.6 17.8,-37.9 7.7,-9.3 14.7,-22.5 17.8,-32.6 3.1,-10.1 12.4,-34.1 20.9,-48.1 8.6,-13.9 41.1,-70.5 51.2,-89.1 6.3,-11.6 28.4,-66.3 44.3,-106 0.6,-1.5 1.1,-2.9 1.7,-4.2 8.7,-22.1 15.2,-38.6 15.2,-38.6" /><path
         id="path28"
         style="fill:#42845f;fill-opacity:1;fill-rule:nonzero;stroke:none"
         d="m 12481.5,4422.2 -51.5,-49.7 -11.3,0.8 -12.2,0.8 -18.6,1.3 c 0,0 -5.6,180.8 -20.1,246.5 -14.5,65.7 -50,240.1 -77.3,289.5 -27.3,49.4 -69.2,129 -87.2,148.2 0,0 -26.2,23.9 -9.9,25.6 16.3,1.7 65.1,-60.4 78.5,-72.1 13.4,-11.6 68,-113.3 81.4,-139.5 13.4,-26.2 37.2,-64.5 42.4,-78.5 5.3,-13.9 27.9,-99.4 31.4,-112.8 3.5,-13.3 4.7,-30.2 12.8,-40.1 8.1,-9.9 5.2,-18.6 3.5,-28.5 -1.8,-9.8 9.9,-24.4 12.2,-29 2.3,-4.7 0,-11.1 0,-25 0,-14 16.9,-24.4 14,-36.6 -3,-12.3 0.5,-19.8 5.8,-28.5 5.2,-8.7 -2.4,-15.7 0,-29.1 0.8,-5 1.9,-12.2 2.9,-19.3 0.3,-2.7 0.7,-5.2 1,-7.7 1.2,-9 2.2,-16.3 2.2,-16.3" /><path
         id="path30"
         style="fill:#42845f;fill-opacity:1;fill-rule:nonzero;stroke:none"
         d="m 12641.1,4695.7 c 0,0 11.2,16.3 12.7,27.9 1.6,11.6 3.9,9.3 14,21.7 10.1,12.4 10.1,19.4 10.1,24.8 0,5.5 0.7,6.2 6.9,13.2 6.2,7 8.6,17.8 9.3,23.3 0.4,2.2 0.4,1.7 0.8,1.2 0.7,-0.7 2.1,-1.4 6.2,6.5 7,13.2 7,29.5 14,33.3 6.9,3.9 13.1,8.6 13.9,14 0.8,5.4 -5.4,12.4 0,17 5.4,4.7 10.1,3.1 12.4,8.6 2.3,5.4 4.7,16.2 5.4,20.9 0.8,4.6 7.8,14.7 10.1,16.3 2.4,1.5 4.7,9.3 5.4,13.9 0.8,4.7 12.9,2.3 13.1,10.1 0.1,7.7 -2.5,13.2 0,17.1 2.5,3.8 7.1,3.8 9.4,9.3 2.4,5.4 -3.1,10 0,15.5 3.1,5.4 9.3,5.4 10.9,10.8 1.5,5.4 2.3,10.9 7,17.1 1.8,2.4 1.9,1.7 2.1,1.1 0.3,-1 0.5,-2 7.2,8.9 10.8,17.9 20.9,47.3 30.2,51.2 0,0 0.8,-4.7 -3.9,-11.6 -4.6,-7 -18.8,-37.2 -26.9,-65.7 -8.2,-28.5 -100.2,-187.8 -124.2,-258.3 -24.1,-70.6 -59.7,-153.5 -65.9,-160.5 l 19.8,112.4" /><path
         id="path32"
         style="fill:#325f46;fill-opacity:1;fill-rule:nonzero;stroke:none"
         d="m 12775.4,4832.7 c 0,0 -19.8,2 -43.6,-44 -23.9,-45.9 -77.5,-161 -93.7,-188.3 -16.2,-27.3 -35.4,-165.7 -61,-185.5 -25.6,-19.7 -1.2,-22.6 19.8,-5.2 20.9,17.4 62.9,128.5 73.9,162.2 7.2,22.1 34.7,117.3 62.7,186.9 14.7,36.6 27.5,67.8 41.9,73.9" /><path
         id="path34"
         style="fill:#42845f;fill-opacity:1;fill-rule:nonzero;stroke:none"
         d="m 12761.6,4812 c -27.1,-27.2 -65.1,-204.7 -91.5,-307.7 -26.3,-103.1 -93.1,-122.6 -95.3,-123.3 -4.7,-1.4 -43.4,-8.5 -43.4,-8.5 h -0.5 c 1.6,0.6 3.2,1.2 4.9,1.9 l 0.2,0.1 c 66.2,30.7 116.3,163.9 121.7,174.7 5.4,10.9 0,10.1 0,16.2 0,6.1 7.8,4.7 11.6,12.5 3.9,7.8 3.1,18.6 2.4,29 -0.8,10.3 3.8,8.2 7.7,13.6 3.9,5.5 7,27.2 6.2,35.7 -0.8,8.5 1.6,11.6 9.3,16.3 7.8,4.6 7.8,16.2 7.8,28.6 0,12.4 3.8,14 11.6,21 7.7,6.9 33.3,83.7 44.2,99.2 10.8,15.5 30.2,17.8 3.1,-9.3" /><path
         id="path36"
         style="fill:#42845f;fill-opacity:1;fill-rule:nonzero;stroke:none"
         d="m 12636,4578.7 c -4.6,-22.1 -9.1,-162.7 -100,-204.2 l -0.2,-0.1 c -1.5,-0.7 -3,-1.3 -4.4,-1.9 h -101.4 0.1 c 0.9,1.2 15.8,19.9 32.6,42.8 5.5,7.4 11.1,15.3 16.6,23.2 11.6,16.7 22.2,33.3 28,45.6 17.1,36.4 13.2,42.6 14.8,50.4 1.5,7.7 6.2,3.1 11.6,13.2 5.4,10 3.9,26.3 3.9,33.3 0,7 11.6,17.8 14.7,23.3 3.1,5.4 5.4,35.6 15.5,48.8 1.6,2.1 3,3.8 4.3,5.4 v 0 c 6.8,8.5 9.7,11.1 14.3,20.9 5.4,11.7 40.3,79.1 37.2,124.8 -3.1,45.8 3.9,95.4 10.1,93.1 6.2,-2.4 6.2,-64.4 7.7,-90.7 1.6,-26.4 -0.8,-205.5 -5.4,-227.9" /><path
         id="path38"
         style="fill:#35664b;fill-opacity:1;fill-rule:nonzero;stroke:none"
         d="m 12418.7,4373.3 v 0 l -12.2,0.8 c 24.8,17.5 58.6,44.9 71.8,72.1 0.3,-2.7 0.7,-5.2 1,-7.7 -1.8,-2.7 -3.7,-5.4 -5.6,-8 -9.6,-13.1 -30.4,-39.4 -55,-57.2" /><path
         id="path40"
         style="fill:#35664b;fill-opacity:1;fill-rule:nonzero;stroke:none"
         d="m 12473.7,4430.5 c 1.9,2.6 3.8,5.3 5.6,8 v 0 c 0,0 -2,-3.1 -5.6,-8" /><path
         id="path42"
         style="fill:#35664b;fill-opacity:1;fill-rule:nonzero;stroke:none"
         d="m 12393.3,4374.2 c -1.8,0.4 -3.5,0.8 -5.3,1.2 l 5.1,-0.3 c 0.1,-0.3 0.1,-0.6 0.2,-0.9 m -5.4,1.3 c -2.2,0.5 -4.5,1.1 -6.7,1.7 v 0 c -0.3,12.5 3.8,38.1 3.8,38.1 0.5,-1.3 1,-2.6 1.5,-3.9 0.9,-21.3 1.4,-35.2 1.4,-35.9" /><path
         id="path44"
         style="fill:#35664b;fill-opacity:1;fill-rule:nonzero;stroke:none"
         d="m 12393.1,4375.1 -5.1,0.3 -0.1,0.1 v 0 c 0,0.7 -0.5,14.6 -1.4,35.9 0.1,-0.1 0.1,-0.2 0.2,-0.3 0.8,-4.5 4.3,-24.3 6.4,-36" /><path
         id="path46"
         style="fill:#325f46;fill-opacity:1;fill-rule:nonzero;stroke:none"
         d="m 12605.8,4450.3 c 0,0 -12.6,-19.1 -28.6,-36.4 -18.6,-20.1 -41.2,-38.9 -45.8,-41.4 0,0 55.9,33 87.2,95 l -12.8,-17.2" /><path
         id="path48"
         style="fill:#2a4937;fill-opacity:1;fill-rule:nonzero;stroke:none"
         d="m 12641.1,4695.7 c 0.2,10.4 0.4,20.7 0.5,30.6 0.2,1.5 0.3,2.4 0.3,2.6 0.2,0.8 74.4,130.6 132.4,232 0.1,-3.3 1.2,-7.4 1.1,-12.5 v 0 0 c -0.1,-2.4 -1.3,-3.9 -3,-4.8 -2.6,-1.6 -6.5,-2 -8.6,-3.3 -0.8,-0.5 -1.3,-1.1 -1.5,-2 -0.7,-4.6 -3.1,-12.4 -5.4,-13.9 -2.3,-1.6 -9.3,-11.7 -10.1,-16.3 -0.8,-4.7 -3.1,-15.5 -5.4,-20.9 -2.3,-5.5 -7,-3.9 -12.4,-8.6 -5.4,-4.6 0.8,-11.6 0,-17 -0.8,-5.4 -7,-10.1 -13.9,-14 -7,-3.8 -7,-20.1 -14,-33.3 -2.7,-5.1 -4.3,-6.6 -5.2,-6.8 -0.1,-0.1 -0.1,-0.1 -0.2,-0.1 -0.4,0 -0.6,0.2 -0.8,0.4 -0.1,0.2 -0.3,0.4 -0.4,0.4 v 0 0 c -0.1,0 -0.2,-0.4 -0.4,-1.6 -0.7,-5.5 -3.1,-16.3 -9.3,-23.3 -6.2,-7 -7,-7.8 -7,-13.2 0,-5.4 0,-12.4 -10,-24.8 -10.1,-12.4 -12.4,-10.1 -14,-21.7 -1.5,-11.4 -12.2,-27.2 -12.7,-27.9" /><path
         id="path50"
         style="fill:#2f5741;fill-opacity:1;fill-rule:nonzero;stroke:none"
         d="m 12695.7,4807.4 c -0.4,0 -0.6,0.2 -0.8,0.4 -0.2,0.2 -0.3,0.4 -0.4,0.4 v 0 c 0.1,0 0.3,-0.2 0.4,-0.4 0.2,-0.2 0.4,-0.4 0.8,-0.4 0.1,0 0.1,0 0.2,0.1 -0.1,-0.1 -0.1,-0.1 -0.2,-0.1 m 68.1,132.9 c 2.1,1.3 6,1.7 8.6,3.3 -2.6,-1.6 -6.5,-2 -8.6,-3.3 m 11.6,8.1 v 0 0 0 0" /><path
         id="path52"
         style="fill:#2f5741;fill-opacity:1;fill-rule:nonzero;stroke:none"
         d="m 12637.8,4677 c 0,12.1 2.8,40.6 3.8,49.3 -0.1,-9.9 -0.3,-20.2 -0.5,-30.6 v 0 l -3.3,-18.7" /><path
         id="path54"
         style="fill:#f2d77c;fill-opacity:1;fill-rule:nonzero;stroke:none"
         d="M 12668.6,4360.7 V 4313 c 0,-3.3 -2.6,-5.9 -5.9,-5.9 h -0.5 c -2.9,0 -5.3,-2.1 -5.8,-5 l -21.3,-126.9 c -9.9,-58.9 -59.4,-102.6 -118.5,-105.5 -2.1,-0.2 -4.2,-0.2 -6.4,-0.2 h -63.9 c -62.5,0 -115.6,45.6 -125.2,107.3 l -19.3,125.2 c -0.2,1.5 -0.9,2.7 -2,3.6 -1,0.9 -2.3,1.5 -3.8,1.5 -3.3,0 -5.9,2.6 -5.9,5.9 v 47.7 c 0,12 9.7,21.6 21.6,21.6 h 335.3 c 11.9,0 21.6,-9.6 21.6,-21.6" /><path
         id="path56"
         style="fill:#ecc349;fill-opacity:1;fill-rule:nonzero;stroke:none"
         d="m 12662.2,4307.1 c -2.9,0 -5.3,-2.1 -5.8,-5 l -21.3,-126.9 c -9.9,-58.9 -59.4,-102.6 -118.5,-105.5 69.4,62.1 65.9,156.3 55.3,194.3 -10.7,38 -90.4,43.1 -90.4,43.1 h 180.7" /><g
         transform="scale(1.11474)"
         id="g58"><path
           id="path60"
           style="fill:#e2e0f0;fill-opacity:1;fill-rule:nonzero;stroke:none"
           d="m 15234.9,0 c -30.5,0 -62.1,0.448537 -94.9,1.43321 C 14083.4,32.2946 14041.4,252.078 13229.4,252.078 c -93.4,0 -196.9,-2.87 -313.5,-9.329 -425.3,-23.506 -925.9,-64.589 -1352.8,-64.589 -706.9,0 -1212,112.492 -840,603.191 267.1,352.459 1296.1,520.299 2375.2,520.299 1330.9,0 2738.2,-255.04 2889.2,-733.533 0,0 312.5,-568.117 -752.6,-568.117" /></g><path
         id="path62"
         style="fill:#f29490;fill-opacity:1;fill-rule:nonzero;stroke:none"
         d="M 15860.6,936.801 15261.5,4050.8 c -2.2,11.3 -13.3,18.9 -24.9,16.8 -11.5,-2.2 -19.1,-13.4 -16.9,-24.9 l 120.5,-626.2 c -3.4,7.4 -10.7,12.5 -19.3,12.5 h -2411.8 l 118.1,613.7 c 2.1,11.5 -5.4,22.7 -17.2,25 -11.3,2 -22.4,-5.6 -24.6,-16.9 L 12386.3,936.801 c -2.2,-11.5 5.3,-22.703 16.8,-24.903 1.3,-0.199 2.7,-0.398 4.1,-0.398 10.1,0 18.9,7.301 20.8,17.301 l 472.9,2457.699 h 2420 c 11.4,0 20.7,9.1 21.1,20.4 l 476.8,-2478.099 c 2,-10 10.7,-17.301 20.9,-17.301 1.4,0 2.7,0.199 4,0.398 11.5,2.2 19.1,13.403 16.9,24.903" /><path
         id="path64"
         style="fill:#5457aa;fill-opacity:0;fill-rule:nonzero;stroke:none"
         d="m 14552.8,12481.3 c -1317.1,1948.5 -1731.8,1330.4 -4278.5,1226.9 -2546.66,-103.5 -2118.82,431 -4604.39,881.3 -625.17,113.3 -1293.23,58.9 -1810.6,-342.4 -490.97,-380.9 -524.41,-1042.2 -884.86,-1445 -26.73,-29.9 -55.27,-58.3 -85.92,-85.2 -133.19,-116.4 -295.5,-192.6 -449.51,-279.3 -509.19,-286.7 -1105.87,-831.7 -1139.94,-1464.2 -34.23,-635.4 545.67,-1089.57 786.08,-1624.9 345.94,-770.33 -720.15,-2364.9 5.23,-2940.58 l 0.15,-0.11 c 157.04,-124.44 457.54,-215.47 654.16,-252.31 177.35,-33.24 383.94,39.85 590.09,112.95 213.91,75.84 427.36,151.69 607.18,108.73 362.08,-86.49 725.57,-304.05 1067.36,-454.84 757.3,-334.1 1542.65,-782.87 2337.46,-997.64 822.74,-222.3 1628.6,-179.7 2475.73,-115.8 538.68,40.5 1084.98,83.4 1575.38,290.8 471.8,199.49 969.3,417.98 1508.4,470.55 281.4,27.44 570.6,-18.96 856.9,-65.35 409.9,-66.43 813.7,-132.85 1179.9,17.39 1196.3,490.82 1170.1,2258.54 1031,3188.62 -196.4,1312.29 -659.4,2642.99 -1421.3,3770.39" /><path
         id="path66"
         style="fill:#e2e0f0;fill-opacity:1;fill-rule:nonzero;stroke:none"
         d="m 10363.4,1467 c -905.79,0 -1863.69,135 -1966.43,388.2 0,0 -212.73,300.7 512.23,300.7 20.76,0 42.23,-0.2 64.55,-0.7 719.19,-16.3 747.6,-132.7 1300.45,-132.7 63.5,0 134,1.6 213.3,5 289.5,12.4 630.2,34.1 920.8,34.1 481.1,0 824.8,-59.5 571.7,-319.3 -181.8,-186.5 -882.1,-275.3 -1616.6,-275.3" /><path
         id="path68"
         style="fill:#4c4d4e;fill-opacity:1;fill-rule:nonzero;stroke:none"
         d="m 14841.4,4158.2 v -18.1 c 0,-17.4 -14.1,-31.5 -31.4,-31.5 h -1636.9 l 350.5,54.8 1317.8,-5.2" /><path
         id="path70"
         style="fill:#d8d9d9;fill-opacity:1;fill-rule:nonzero;stroke:none"
         d="m 13522.7,4163.4 -387.2,917.3 -421.3,67.26 458.9,-1039.36 349.6,54.8" /><path
         id="path72"
         style="fill:#4c4d4e;fill-opacity:1;fill-rule:nonzero;stroke:none"
         d="m 13117.1,5051.2 c 12.3,-26 346.5,-833.6 346.5,-833.6 l -272.1,-15.3 -389.7,902.3 315.3,-53.4" /><path
         id="path74"
         style="fill:#d8d9d9;fill-opacity:1;fill-rule:nonzero;stroke:none"
         d="m 13523.6,4163.4 1317.8,-5.2 -100.8,-32.8 c -34.1,-11.1 -69.8,-16.8 -105.7,-16.8 h -1462.6 l 351.3,54.8" /><path
         id="path76"
         style="fill:#4c4d4e;fill-opacity:1;fill-rule:nonzero;stroke:none"
         d="m 13691.2,4132.2 h 510.5 l -178.3,18 h -411.3 l 79.1,-18" /><path
         id="path78"
         style="fill:#4c4d4e;fill-opacity:1;fill-rule:nonzero;stroke:none"
         d="m 14308.7,4132.2 h 35.6 l -176.2,18 h -67.3 l 207.9,-18" /><g
         transform="scale(1.13915)"
         id="g80"><path
           id="path82"
           style="fill:#e2e0f0;fill-opacity:1;fill-rule:nonzero;stroke:none"
           d="m 15535,1139.09 c -422.5,0 -765,51.53 -765,115.18 0,63.55 342.5,115.17 765,115.17 422.6,0 765,-51.62 765,-115.17 0,-63.65 -342.4,-115.18 -765,-115.18" /></g><g
         transform="scale(1.08982)"
         id="g84"><path
           id="path86"
           style="fill:#fbc01c;fill-opacity:1;fill-rule:nonzero;stroke:none"
           d="m 15791.5,4176.12 c 73,-114.43 88.2,-256.19 146.4,-378.78 48.8,-102.86 128.7,-190.67 225.8,-249.95 26.8,-16.34 43.3,-24.87 53.7,-37.16 9.5,-11.11 14.1,-25.42 17,-51.48 10,-89.83 11.3,-181.04 14,-271.33 9.5,-315.47 10.8,-631.21 11.6,-946.77 0.3,-79.28 0.4,-158.65 0.4,-237.93 h 39.6 c -0.6,151.95 -9.2,304.73 -12.7,454.76 -9.4,401.63 -43.1,808.48 -26.9,1209.19 4.2,104.88 -1.4,214.81 -53,306.2 -31.7,56.25 -78.8,101.85 -125.2,146.63 -113.5,109.56 -228.7,220.32 -366.9,296.29 -11.4,-48.45 -5.8,-100.75 15.7,-145.62 16.1,-33.67 40.4,-62.67 60.5,-94.05" /></g><g
         transform="scale(1.14117)"
         id="g88"><path
           id="path90"
           style="fill:#374175;fill-opacity:1;fill-rule:nonzero;stroke:none"
           d="m 15495.3,1912.59 h 61.3 c 29.7,460.15 108.1,1480.41 226,1657.34 25.5,0 332,171.49 344.4,223.89 12.5,52.49 13.1,151.86 38.7,220.3 29.7,79.74 50.9,156.24 59.6,240.81 5.2,50.38 74.7,123.73 57.1,172.27 -14.6,40.14 -131.4,-65.72 -175.1,-109.45 -43.8,-43.81 -113.1,-138.63 -182.4,-178.76 -69.4,-40.13 -160.5,-237.12 -182,-317.31 -21.5,-80.26 0,-229.49 0,-229.49 0,0 -190.4,-821.01 -219,-1273.35 -11,-174.29 -20.8,-307.75 -28.6,-406.25" /></g><g
         transform="scale(1.09144)"
         id="g92"><path
           id="path94"
           style="fill:#374175;fill-opacity:1;fill-rule:nonzero;stroke:none"
           d="m 16204.3,2371.01 c -1.1,-172.62 -2,-290.63 -2.5,-371.26 h 82.9 c 15.3,305.93 -8.6,939.32 -421.1,1276.49 0,0 60.4,7.78 37.8,109.39 -22.5,101.61 -169.9,218.52 -164.9,274.5 4.6,51.86 -43,97.12 -66.1,144.95 -48.4,100.42 -128.5,84.57 -195.4,160.52 -17.8,20.25 -86,138.9 -120.1,121.13 -33.9,-17.68 -22.3,-176.38 -19.7,-194.61 8.4,-56.8 27,-131.11 79.6,-163.27 68.7,-41.96 84,-232.72 137.4,-270.84 53.3,-38.11 251.7,-194.51 293.6,-198.36 42,-3.75 362.4,-343.21 358.5,-888.64" /></g><g
         transform="scale(1.17515)"
         id="g96"><path
           id="path98"
           style="fill:#fbc01c;fill-opacity:1;fill-rule:nonzero;stroke:none"
           d="m 16164.1,3546.09 c -38.5,-16.08 -78.6,-28.59 -119.5,-37.36 -28.1,-6.04 -57.5,-10.72 -81.4,-26.72 -23.2,-15.48 -38.7,-40.25 -61.3,-56.67 -25.8,-18.72 -58.4,-25.1 -86.8,-39.82 -45.8,-24 -77.6,-69.02 -98.3,-116.5 -20.8,-47.48 -32.3,-98.37 -48.8,-147.47 -5,-14.81 -10.6,-29.78 -20.8,-41.7 -10.9,-12.85 -26,-21.1 -40.6,-29.52 -180.6,-103.74 -326,-268.65 -420.7,-453.05 -79.1,-154.11 -125.7,-323.79 -146.2,-495.43 -9.7,-81.01 -13.9,-162.95 -11.4,-244.56 h 75.9 c -8.3,131.56 -5.9,263.97 13,394.5 16.1,111.39 44.5,221.42 89.2,324.89 34.8,80.42 79.4,156.49 134.2,224.91 42.5,52.93 90.9,101.1 144.4,143.05 37.7,29.61 77.8,55.91 119.6,79.39 29.2,16.42 76.1,51.14 107.1,47.4 41.8,-5.11 83.3,-20.59 125.4,-7.83 30,9.19 54.2,30.97 77.6,51.99 75.9,68.25 154.4,134.2 223.4,209.59 68.9,75.4 128.5,161.43 159.9,258.69 1,3.15 2,6.38 1.5,9.7 -1,7.41 -9.5,11.92 -17,11.4 -7.6,-0.59 -14.2,-4.76 -20.7,-8.76 -31.2,-19.23 -63.8,-36.08 -97.7,-50.12" /></g><g
         transform="scale(1.08626)"
         id="g100"><path
           id="path102"
           style="fill:#374175;fill-opacity:1;fill-rule:nonzero;stroke:none"
           d="m 15997.4,2774 c 121,-62.14 188.1,-263.65 226.7,-374.49 32.9,-94.45 36.6,-324.42 37,-390.24 h 38.1 c 0.8,603.82 -290,793.27 -290,793.27 -6.7,220.02 -184.8,230.06 -270.4,230.06 -85.6,0 -173,38.66 -230,55.41 -57.2,16.85 -85.8,16.85 -85.8,-10.03 0,-26.88 146.9,-67.11 213.3,-107.52 8.4,-5.07 243.5,-162.85 274.7,-175.47 31,-12.61 86.4,-20.99 86.4,-20.99" /></g><g
         transform="scale(1.15283)"
         id="g104"><path
           id="path106"
           style="fill:#9273c1;fill-opacity:1;fill-rule:nonzero;stroke:none"
           d="m 16208,3055.42 c -61.4,-18.12 -155.3,-59.59 -247.4,-59.59 -92.1,0 -283.5,-10.84 -290.7,-247.39 0,0 -313.5,-204.19 -311.7,-855.2 h 40.9 c 0.3,67.41 3.9,319.13 39.7,421.92 41.6,119.19 113.7,335.79 243.8,402.58 0,0 59.6,9.02 93,22.64 33.4,13.53 286.1,183.2 295.1,188.66 71.5,43.37 229.3,86.66 229.3,115.54 0,28.89 -30.7,28.89 -92,10.84" /></g><g
         transform="scale(1.08885)"
         id="g108"><path
           id="path110"
           style="fill:#9273c1;fill-opacity:1;fill-rule:nonzero;stroke:none"
           d="m 16097.5,3069.93 c 37.5,4.96 202.5,-752.63 151.1,-1065.44 h 40.7 c 2.6,105.35 7.5,657.95 -174,1078.11 -6.4,15.06 -1.7,52.72 -4.2,70.08 -8.6,59.23 -15,123.79 -64.9,163.56 -65.2,51.8 -137.5,105.71 -218.7,128.39 -82.9,23.24 -171,21.96 -252.5,50.89 -79,28 -180.9,124.9 -188.6,81.55 0,0 137.6,-262.48 201.4,-285.44 63.7,-22.96 208.9,-89.18 252.3,-132.52 43.3,-43.36 219.2,-94.32 257.4,-89.18" /></g><g
         transform="scale(1.14985)"
         id="g112"><path
           id="path114"
           style="fill:#9273c1;fill-opacity:1;fill-rule:nonzero;stroke:none"
           d="m 16290.2,3886.06 c -0.7,0.7 -1.4,1.39 -2.3,2.09 -134.4,-111.49 -328.1,-113.67 -483.9,-192.89 -77.5,-39.49 -143.9,-97.32 -209.5,-154.46 -28.3,-24.7 -57.4,-50.35 -74,-84.01 -24.3,-49.22 -18.3,-108.01 -2.8,-160.72 3.9,-13.04 8.3,-26.09 8.5,-39.65 0.2,-10.88 -2.2,-21.66 -4.6,-32.27 -74.9,-328.47 -129.8,-660.26 -152.3,-996.65 -7.4,-109.58 -11.9,-219.51 -10.9,-329.35 h 62.1 c -31.7,311 2.7,629.65 47.9,937.69 19,128.8 43.3,256.73 67.1,384.75 1.3,6.87 2.7,14 6.6,19.91 11.4,17.4 38.7,14.87 56.5,18.87 29.8,6.79 57.6,22.01 84.4,36.18 90.8,48.01 182.2,96.27 263.4,159.41 135.5,105.41 236.7,247.6 335.9,387.71 9.2,12.95 17.7,32.26 7.9,43.39" /></g><g
         transform="scale(1.11236)"
         id="g116"><path
           id="path118"
           style="fill:#fcd0c8;fill-opacity:1;fill-rule:nonzero;stroke:none"
           d="m 16278.4,2027.05 h -381.7 -381.7 c 0,0 -21.7,-627.23 218.1,-770.8 8.4,-5.03 18,-7.64 27.8,-7.64 h 135.8 135.8 c 9.8,0 19.4,2.61 27.7,7.64 239.8,143.57 218.2,770.8 218.2,770.8" /></g><g
         transform="scale(1.11236)"
         id="g120"><path
           id="path122"
           style="fill:#f29490;fill-opacity:1;fill-rule:nonzero;stroke:none"
           d="m 16060.3,1256.25 c -8.3,-5.03 -18,-7.64 -27.8,-7.64 h -123.2 c 9.8,0 19.3,2.61 27.8,7.64 239.7,143.57 218.1,770.8 218.1,770.8 h 123.2 c 0,0 21.6,-627.23 -218.1,-770.8" /></g><g
         transform="scale(1.06631)"
         id="g124"><path
           id="path126"
           style="fill:#9273c1;fill-opacity:1;fill-rule:nonzero;stroke:none"
           d="m 15714.1,3146.92 c 55.7,-8.91 110.5,-22.42 164.4,-39.11 26.8,-8.63 53.2,-18.57 79.7,-28.04 26.5,-9.66 53,-19.22 79.2,-29.54 26.4,-10.03 52.2,-21.38 77.5,-34.04 12.7,-6.19 25,-13.13 37.5,-19.88 12.2,-7.22 24.3,-14.54 35.9,-22.61 23.5,-15.84 45.8,-33.76 65.5,-54.2 19.6,-20.54 36.3,-44.36 46.2,-70.81 l -0.8,-0.37 c -12.1,25.41 -29.7,47.54 -49.8,66.87 -20,19.41 -42.4,36.2 -65.6,51.86 -46.5,30.94 -96.8,56.17 -148.1,79.24 -25.6,11.44 -51.7,22.04 -78.4,30.95 -26.5,9.19 -53.7,16.69 -80.7,24.38 -54,15.48 -108.2,30.48 -162.7,44.55 l 0.2,0.75" /></g><g
         transform="scale(1.07546)"
         id="g128"><path
           id="path130"
           style="fill:#c6b4e0;fill-opacity:1;fill-rule:nonzero;stroke:none"
           d="m 15599.7,3622.64 c 5.2,-17.77 13.9,-34.41 24.3,-49.57 2.8,-3.71 5.3,-7.62 8.2,-11.24 l 8.9,-10.61 c 6.4,-6.6 12.8,-13.29 19.8,-19.24 6.6,-6.42 14.4,-11.44 21.7,-17.11 l 11.6,-7.35 c 3.9,-2.41 7.8,-4.93 12,-6.88 8.3,-4.09 16.2,-8.74 24.8,-11.99 l 12.8,-5.4 c 4.3,-1.76 8.7,-2.97 13.1,-4.46 17.4,-6.23 35.6,-10.88 53.5,-16 l 53.9,-14.87 c 36,-10.14 71.8,-20.73 106.9,-33.47 35.3,-12.46 69.2,-28.83 101.9,-47.15 15.7,-10.13 32.3,-19.25 47.1,-30.87 7.6,-5.48 15.2,-11.06 22.6,-16.83 l 21.3,-18.5 c 56.3,-49.65 101.7,-111.02 135.9,-177.42 l -0.6,-0.37 -30.4,46.96 -33.3,44.72 -18.3,21.11 c -6.1,6.88 -11.7,14.42 -18.6,20.65 l -19.6,19.71 c -3.2,3.25 -6.4,6.69 -9.8,9.76 l -10.5,9.02 -21.2,18.13 -22.2,16.74 c -14.4,11.62 -30.6,20.73 -46,31.06 -32.2,18.5 -65.2,35.61 -99.8,49.37 -34.5,13.86 -70,25.48 -106.1,34.78 -36,9.85 -72.6,16.55 -108.7,27.52 -35.7,11.34 -70.2,28.92 -97.9,54.86 -14.1,12.46 -26.3,27.24 -36.2,43.14 -10.1,15.9 -18,33.29 -21.9,51.7 l 0.8,0.1" /></g><g
         transform="scale(1.05029)"
         id="g132"><path
           id="path134"
           style="fill:#9273c1;fill-opacity:1;fill-rule:nonzero;stroke:none"
           d="m 16300,3591.94 c -5.6,29.43 -15.6,57.89 -26.7,85.6 -12,29.52 -25.8,58.18 -41,86.17 -14.8,28.08 -32.2,54.84 -50.4,80.93 -18.1,26.28 -38.6,50.84 -61.3,73.21 -11.1,11.43 -23.4,21.52 -36.1,31.23 -12.9,9.33 -26.6,17.24 -37.8,28.57 -22.5,21.99 -37.2,50.65 -48.7,79.59 -23.1,58.56 -34.7,121.21 -41.2,184.14 h -0.8 c 0.2,-31.8 3.6,-63.5 9.2,-94.83 5.9,-31.32 14,-62.36 26.6,-91.78 12.8,-29.33 30,-57.03 53,-79.12 11.6,-11.14 25.6,-19.43 38,-28.76 6.7,-4.38 12.1,-10.28 18,-15.33 6,-5.04 11.3,-11.14 16.8,-16.75 42.7,-46.37 76.7,-100.07 107.6,-155.01 15,-27.8 29.7,-55.79 42.4,-84.64 12,-27.04 23.4,-54.46 31.1,-83.02 l 1.3,-0.2" /></g><g
         transform="scale(1.0849)"
         id="g136"><path
           id="path138"
           style="fill:#374175;fill-opacity:1;fill-rule:nonzero;stroke:none"
           d="m 15785,4421.6 c 1.7,-4.7 5.2,-9.31 7.9,-13.83 3.1,-4.51 6.1,-8.94 9.3,-13.36 l 18.9,-26.46 c 12.8,-17.51 26,-34.66 39.2,-51.89 26.6,-34.2 54.1,-67.66 82.7,-100.1 14.3,-16.22 29,-32.17 44.4,-47.38 7.7,-7.56 15.7,-14.84 23.8,-21.94 8.2,-6.91 17.2,-13.46 24.8,-21.29 30.6,-31.15 55.4,-67.2 79.1,-103.51 23.6,-36.59 45.1,-74.48 64.9,-113.1 19.8,-38.8 38.4,-78.16 54.7,-118.44 16.8,-40.19 31.4,-81.21 43.5,-123.05 11.6,-41.85 21.8,-84.81 21.2,-128.5 h -0.8 c -0.6,21.66 -4.4,43.05 -9.1,64.16 -4.6,21.1 -10.7,41.94 -17,62.58 -13,41.3 -28.5,81.76 -45,121.77 -33.6,79.82 -71.6,157.89 -116,232.36 -11.1,18.53 -22.9,36.78 -35.6,54.3 -12.7,17.51 -26.2,34.56 -41.7,49.49 -7.7,7.66 -16.4,13.92 -24.9,20.74 -8.5,6.92 -16.9,13.92 -24.8,21.39 -16,14.74 -31.4,30.14 -46.2,46.18 -29.4,31.98 -56.6,66.09 -82.7,100.83 -13.1,17.33 -25.5,35.21 -37.8,53.1 -6.1,8.94 -12,18.06 -17.8,27.28 -2.9,4.61 -5.8,9.22 -8.5,13.92 -1.4,2.3 -2.7,4.7 -4.1,7.1 -1.1,2.48 -2.7,4.61 -3.2,7.74 l 0.8,-0.09" /></g><g
         transform="scale(1.14902)"
         id="g140"><path
           id="path142"
           style="fill:#c6b4e0;fill-opacity:1;fill-rule:nonzero;stroke:none"
           d="m 16300,3885.73 c -5.2,-9.23 -11.7,-17.58 -18.4,-25.67 -6.8,-8.01 -13.9,-15.84 -21.5,-23.15 -15.1,-14.71 -30.9,-28.72 -47.7,-41.43 -33.5,-25.68 -69.1,-48.3 -105.9,-68.67 -37,-19.93 -75.1,-37.77 -113.5,-54.74 -19.3,-8.44 -38.1,-17.58 -57,-26.54 -9.4,-4.53 -18.6,-9.75 -27.8,-14.71 -9.1,-5.14 -18.5,-9.75 -27.4,-15.41 -17.8,-10.96 -35.9,-21.58 -52.9,-33.68 -8.7,-5.92 -17.5,-11.48 -25.9,-17.75 l -25.1,-18.8 c -8.6,-6.01 -16.3,-13.05 -24.5,-19.58 -8.1,-6.62 -16.3,-13.14 -23.8,-20.37 l -23.2,-20.97 -22.3,-22.1 c -29,-30.03 -56.1,-61.97 -79.5,-96.52 -23.4,-34.47 -43.7,-71.46 -56.7,-111.4 l -0.7,0.17 c 10.8,40.73 29.9,78.94 52.7,114.36 22.9,35.42 49.6,68.32 78.8,98.6 58.8,60.67 127.6,110.79 201.2,151.52 8.9,5.4 18.6,9.75 27.8,14.71 9.5,4.61 18.6,9.75 28.1,14.28 l 57.2,26.54 28.5,13.32 c 9.4,4.43 18.6,9.48 28,14.27 18.7,9.31 36.8,19.84 55.2,30.02 36.2,20.98 71.8,42.91 105.4,67.89 16.8,12.44 33,25.59 48.4,39.77 15.3,14.19 30.1,29.07 41.9,46.39 l 0.6,-0.35" /></g><g
         transform="scale(1.13911)"
         id="g144"><path
           id="path146"
           style="fill:#9273c1;fill-opacity:1;fill-rule:nonzero;stroke:none"
           d="m 16300,4438.82 c -53.6,-60.67 -105,-123.17 -155.2,-186.73 -25.1,-31.69 -50.2,-63.47 -73.4,-96.57 -23.4,-33.09 -45.5,-67.07 -66.3,-101.83 -20.4,-34.85 -40,-70.23 -58.4,-106.23 -18,-36.07 -34.5,-73.03 -49.4,-110.52 -14.4,-37.57 -26.6,-76.11 -35.2,-115.53 -3.8,-18.17 -7.1,-36.52 -9.1,-55.04 -1.4,-1.05 -2.7,-2.02 -4.1,-3.07 1.3,19.93 3.9,39.68 7.7,59.25 7.6,39.95 18.9,79.19 33.7,117.11 29.1,76.03 67.9,147.84 111.5,216.14 21.7,34.23 44.6,67.68 67.5,101.13 23.1,33.27 46.3,66.54 70.8,98.85 24.4,32.3 50.3,63.55 76.8,94.37 26.6,30.64 53.7,60.66 82.6,89.1 l 0.5,-0.43" /></g><g
         transform="scale(1.17394)"
         id="g148"><path
           id="path150"
           style="fill:#374175;fill-opacity:1;fill-rule:nonzero;stroke:none"
           d="m 16299.3,3604.11 0.7,-1.02 -0.3,-0.77 -0.8,-1.45 c -0.6,-0.85 -1.2,-1.7 -1.9,-2.47 -1.3,-1.62 -2.6,-3.15 -4,-4.69 -2.8,-3.06 -5.6,-6.04 -8.5,-8.94 -5.8,-5.79 -11.8,-11.5 -17.8,-17.12 -12.1,-11.08 -24.3,-22.06 -36.9,-32.54 -25.1,-21.13 -50.8,-41.66 -77.8,-60.57 -27.1,-18.57 -54.7,-36.63 -85,-49.91 -7.7,-3.07 -15.5,-5.37 -22.8,-8.95 -7.3,-3.58 -14.6,-7.41 -21.6,-11.5 -14.4,-8.01 -28,-16.95 -41.6,-26.15 -53.9,-37.05 -105.4,-77.6 -154.1,-121.22 -12.1,-10.9 -24,-22.14 -35.6,-33.64 -11.7,-11.42 -22.9,-23.18 -33.6,-35.52 -10.6,-12.36 -21.1,-24.88 -30,-38.51 -8.9,-13.63 -17.2,-27.94 -21.3,-43.7 l -0.7,0.09 c 3.3,16.18 10.5,31.35 19,45.48 8.4,14.15 18.3,27.44 28.8,40.21 20.8,25.47 44.2,48.9 68.5,71.05 24.2,22.23 49.7,43.1 75.9,62.86 26.1,19.93 53.2,38.76 81,56.14 13.8,8.86 28.1,17.03 42.4,25.12 7.2,4.01 14.5,7.67 22,11.25 7.4,3.49 15.3,6.22 22.8,9.29 14.9,6.47 28.9,15.07 42.5,24.1 13.6,8.95 26.9,18.57 40,28.28 26.3,19.51 52.3,39.36 77.7,59.97 12.7,10.31 25.5,20.53 37.9,31.18 l 18.6,16.1 c 3.1,2.73 6.1,5.45 9,8.26 1.5,1.45 2.9,2.9 4.4,4.35 0.6,0.76 1.3,1.53 1.9,2.29 l 1.1,1.96 0.1,0.69" /></g><g
         transform="scale(1.1523)"
         id="g152"><path
           id="path154"
           style="fill:#c6b4e0;fill-opacity:1;fill-rule:nonzero;stroke:none"
           d="m 16300,3063.7 c -53.5,-20.66 -107.1,-40.36 -160.9,-59.88 -26.9,-9.64 -54,-18.83 -80.4,-29.77 -13.3,-5.21 -26.3,-11.2 -39.4,-16.92 l -39.4,-17.36 c -52.1,-23.34 -104.3,-47.03 -153.1,-76.19 -12.3,-7.21 -24.1,-15.19 -35.7,-23.26 -11.6,-8.07 -22.9,-16.75 -33.5,-26.21 -21.1,-18.83 -40.3,-40.44 -52.6,-66.3 l -0.7,0.26 c 10.3,26.9 28.8,50.24 49.5,70.21 20.9,19.87 44.5,36.79 69.2,51.72 24.4,15.01 50.2,27.94 76.2,40 26.1,12.07 52.5,23 79.2,33.42 26.7,10.41 53.1,21.43 79.3,32.97 26.4,11.11 52.7,22.48 79.3,32.98 53.5,20.57 107.7,38.96 162.7,55.02 l 0.3,-0.69" /></g><path
         id="path156"
         style="fill:#ffffff;fill-opacity:1;fill-rule:nonzero;stroke:none"
         d="M 12547.6,7529.74 H 5218.25 c -190.83,0 -346.97,156.13 -346.97,346.97 v 4440.69 c 0,190.8 156.14,347 346.97,347 h 7329.35 c 190.9,0 347,-156.2 347,-347 V 7876.71 c 0,-190.84 -156.1,-346.97 -347,-346.97" /><path
         id="path158"
         style="fill:#5457aa;fill-opacity:1;fill-rule:nonzero;stroke:none"
         d="m 8067.32,9593.55 h -712.89 c -14.38,0 -26.04,11.66 -26.04,26.05 v 31.44 c 0,14.37 11.66,26.04 26.04,26.04 h 712.89 c 14.38,0 26.04,-11.67 26.04,-26.04 v -31.44 c 0,-14.39 -11.66,-26.05 -26.04,-26.05" /><path
         id="path160"
         style="fill:#5457aa;fill-opacity:1;fill-rule:nonzero;stroke:none"
         d="M 5963.7,8362.01 H 5823.28 V 9656.25 H 5963.7 V 8362.01" /><path
         id="path162"
         style="fill:#5457aa;fill-opacity:1;fill-rule:nonzero;stroke:none"
         d="m 6209.93,8362.01 h -140.41 v 1231.67 h 140.41 V 8362.01" /><path
         id="path164"
         style="fill:#5457aa;fill-opacity:1;fill-rule:nonzero;stroke:none"
         d="m 6456.16,8362.01 h -140.41 v 549.44 h 140.41 v -549.44" /><path
         id="path166"
         style="fill:#5457aa;fill-opacity:1;fill-rule:nonzero;stroke:none"
         d="m 6702.39,8362.01 h -140.41 v 1016.47 h 140.41 V 8362.01" /><path
         id="path168"
         style="fill:#5457aa;fill-opacity:1;fill-rule:nonzero;stroke:none"
         d="m 5630.98,8347.51 h -29 V 9800.1 h 29 V 8347.51" /><path
         id="path170"
         style="fill:#5457aa;fill-opacity:1;fill-rule:nonzero;stroke:none"
         d="m 6966.71,8376.51 v -29 H 5601.98 v 29 h 1364.73" /><path
         id="path172"
         style="fill:#5457aa;fill-opacity:1;fill-rule:nonzero;stroke:none"
         d="m 7062.82,8362.01 -157.12,90.71 V 8271.3 Z" /><path
         id="path174"
         style="fill:#5457aa;fill-opacity:1;fill-rule:nonzero;stroke:none"
         d="m 5616.48,9928.59 -90.71,-157.12 h 181.42 z" /><path
         id="path176"
         style="fill:#c6b4e0;fill-opacity:1;fill-rule:nonzero;stroke:none"
         d="M 12115.9,8824.08 H 9496.16 c -14.38,0 -26.04,11.66 -26.04,26.04 v 115.94 c 0,14.38 11.66,26.04 26.04,26.04 h 2619.74 c 14.3,0 26,-11.66 26,-26.04 v -115.94 c 0,-14.38 -11.7,-26.04 -26,-26.04" /><path
         id="path178"
         style="fill:#c6b4e0;fill-opacity:1;fill-rule:nonzero;stroke:none"
         d="M 11390,8449.38 H 9496.16 c -14.38,0 -26.04,11.66 -26.04,26.05 v 115.94 c 0,14.38 11.66,26.04 26.04,26.04 H 11390 c 14.4,0 26,-11.66 26,-26.04 v -115.94 c 0,-14.39 -11.6,-26.05 -26,-26.05" /><path
         id="path180"
         style="fill:#c6b4e0;fill-opacity:1;fill-rule:nonzero;stroke:none"
         d="m 11671.4,10326.4 h -1671.2 c -14.42,0 -26.08,11.7 -26.08,26.1 v 50.2 c 0,14.4 11.66,26 26.08,26 h 1671.2 c 14.3,0 26,-11.6 26,-26 v -50.2 c 0,-14.4 -11.7,-26.1 -26,-26.1" /><path
         id="path182"
         style="fill:#c6b4e0;fill-opacity:1;fill-rule:nonzero;stroke:none"
         d="m 11611.9,10098.4 h -1611.7 c -14.42,0 -26.08,11.7 -26.08,26 v 50.2 c 0,14.4 11.66,26.1 26.08,26.1 h 1611.7 c 14.3,0 26,-11.7 26,-26.1 v -50.2 c 0,-14.3 -11.7,-26 -26,-26" /><path
         id="path184"
         style="fill:#c6b4e0;fill-opacity:1;fill-rule:nonzero;stroke:none"
         d="m 12123.5,9870.33 h -2123.3 c -14.42,0 -26.08,11.66 -26.08,26.04 v 50.19 c 0,14.38 11.66,26.04 26.08,26.04 h 2123.3 c 14.3,0 26,-11.66 26,-26.04 v -50.19 c 0,-14.38 -11.7,-26.04 -26,-26.04" /><path
         id="path186"
         style="fill:#c6b4e0;fill-opacity:1;fill-rule:nonzero;stroke:none"
         d="m 11199.1,9642.27 h -1198.9 c -14.42,0 -26.08,11.66 -26.08,26.04 v 50.19 c 0,14.38 11.66,26.04 26.08,26.04 h 1198.9 c 14.4,0 26.1,-11.66 26.1,-26.04 v -50.19 c 0,-14.38 -11.7,-26.04 -26.1,-26.04" /><path
         id="path188"
         style="fill:#5457aa;fill-opacity:1;fill-rule:nonzero;stroke:none"
         d="m 11492.3,11285.4 c 0,-311.4 -252.4,-563.8 -563.7,-563.8 -311.4,0 -563.8,252.4 -563.8,563.8 0,311.3 252.4,563.7 563.8,563.7 v -563.7 h 563.7" /><path
         id="path190"
         style="fill:#c6b4e0;fill-opacity:1;fill-rule:nonzero;stroke:none"
         d="m 11003.3,11932.6 v -566.3 h 566.3 m 0,0 c 0,312.8 -253.5,566.3 -566.3,566.3" /><path
         id="path192"
         style="fill:#c6b4e0;fill-opacity:1;fill-rule:nonzero;stroke:none"
         d="M 8821.53,10386.6 H 5526.35 c -47.24,0 -85.53,38.2 -85.53,85.5 v 1474.4 c 0,47.3 38.29,85.5 85.53,85.5 h 3295.18 c 47.23,0 85.52,-38.2 85.52,-85.5 v -1474.4 c 0,-47.3 -38.29,-85.5 -85.52,-85.5" /><path
         id="path194"
         style="fill:#ffffff;fill-opacity:1;fill-rule:nonzero;stroke:none"
         d="M 8703.96,11642.3 H 6628.49 c -14.38,0 -26.04,11.6 -26.04,26 v 31.5 c 0,14.3 11.66,26 26.04,26 h 2075.47 c 14.39,0 26.05,-11.7 26.05,-26 v -31.5 c 0,-14.4 -11.66,-26 -26.05,-26" /><path
         id="path196"
         style="fill:#ffffff;fill-opacity:1;fill-rule:nonzero;stroke:none"
         d="M 7948.82,11456 H 6628.49 c -14.38,0 -26.04,11.7 -26.04,26.1 v 31.4 c 0,14.4 11.66,26.1 26.04,26.1 h 1320.33 c 14.39,0 26.04,-11.7 26.04,-26.1 v -31.4 c 0,-14.4 -11.65,-26.1 -26.04,-26.1" /><path
         id="path198"
         style="fill:#ffffff;fill-opacity:1;fill-rule:nonzero;stroke:none"
         d="M 8370.83,11269.8 H 6628.49 c -14.38,0 -26.04,11.6 -26.04,26 v 31.5 c 0,14.3 11.66,26 26.04,26 h 1742.34 c 14.39,0 26.04,-11.7 26.04,-26 v -31.5 c 0,-14.4 -11.65,-26 -26.04,-26" /><path
         id="path200"
         style="fill:#ffffff;fill-opacity:1;fill-rule:nonzero;stroke:none"
         d="m 7132.09,11083.6 h -503.6 c -14.38,0 -26.04,11.6 -26.04,26 v 31.4 c 0,14.4 11.66,26.1 26.04,26.1 h 503.6 c 14.38,0 26.04,-11.7 26.04,-26.1 v -31.4 c 0,-14.4 -11.66,-26 -26.04,-26" /><path
         id="path202"
         style="fill:#ffffff;fill-opacity:1;fill-rule:nonzero;stroke:none"
         d="M 8703.96,10787.4 H 5737.17 c -14.38,0 -26.04,11.7 -26.04,26.1 v 31.4 c 0,14.4 11.66,26 26.04,26 h 2966.79 c 14.39,0 26.05,-11.6 26.05,-26 v -31.4 c 0,-14.4 -11.66,-26.1 -26.05,-26.1" /><path
         id="path204"
         style="fill:#ffffff;fill-opacity:1;fill-rule:nonzero;stroke:none"
         d="M 8609.4,10601.2 H 5737.17 c -14.38,0 -26.04,11.6 -26.04,26 v 31.4 c 0,14.4 11.66,26.1 26.04,26.1 H 8609.4 c 14.39,0 26.04,-11.7 26.04,-26.1 v -31.4 c 0,-14.4 -11.65,-26 -26.04,-26" /><path
         id="path206"
         style="fill:#5457aa;fill-opacity:1;fill-rule:nonzero;stroke:none"
         d="m 6310.94,11425.9 c 0,-165.6 -134.27,-299.9 -299.91,-299.9 -165.63,0 -299.9,134.3 -299.9,299.9 0,165.6 134.27,299.9 299.9,299.9 165.64,0 299.91,-134.3 299.91,-299.9" /><path
         id="path208"
         style="fill:#c6b4e0;fill-opacity:1;fill-rule:nonzero;stroke:none"
         d="m 5947.08,13304.3 c -76.16,0 -138.13,-62 -138.13,-138.1 0,-76.2 61.97,-138.2 138.13,-138.2 76.15,0 138.12,62 138.12,138.2 0,76.1 -61.97,138.1 -138.12,138.1 z m 0,-302.2 c -90.47,0 -164.07,73.6 -164.07,164.1 0,90.4 73.6,164 164.07,164 90.47,0 164.07,-73.6 164.07,-164 0,-90.5 -73.6,-164.1 -164.07,-164.1" /><path
         id="path210"
         style="fill:#c6b4e0;fill-opacity:1;fill-rule:nonzero;stroke:none"
         d="m 5947.08,13304.3 c -7.17,0 -12.98,5.8 -12.98,13 v 1370.1 H 2724.22 c -7.17,0 -12.97,5.8 -12.97,13 0,7.1 5.8,13 12.97,13 h 3222.86 c 7.17,0 12.97,-5.9 12.97,-13 v -1383.1 c 0,-7.2 -5.8,-13 -12.97,-13" /><path
         id="path212"
         style="fill:#c6b4e0;fill-opacity:1;fill-rule:nonzero;stroke:none"
         d="m 12215.3,13294.3 c -76.1,0 -138.1,-62 -138.1,-138.1 0,-76.2 62,-138.2 138.1,-138.2 76.2,0 138.2,62 138.2,138.2 0,76.1 -62,138.1 -138.2,138.1 z m 0,-302.2 c -90.4,0 -164,73.6 -164,164.1 0,90.4 73.6,164 164,164 90.5,0 164.1,-73.6 164.1,-164 0,-90.5 -73.6,-164.1 -164.1,-164.1" /><path
         id="path214"
         style="fill:#c6b4e0;fill-opacity:1;fill-rule:nonzero;stroke:none"
         d="m 12215.3,13294.3 c -7.1,0 -12.9,5.8 -12.9,13 v 901.1 c 0,7.2 5.8,13 12.9,13 h 2454.4 c 7.2,0 13,-5.8 13,-13 0,-7.2 -5.8,-13 -13,-13 h -2441.4 v -888.1 c 0,-7.2 -5.8,-13 -13,-13" /><path
         id="path216"
         style="fill:#c6b4e0;fill-opacity:1;fill-rule:nonzero;stroke:none"
         d="m 13481.5,10312.6 c -76.2,0 -138.1,-62 -138.1,-138.1 0,-76.2 61.9,-138.1 138.1,-138.1 76.1,0 138.1,61.9 138.1,138.1 0,76.1 -62,138.1 -138.1,138.1 z m 0,-302.2 c -90.5,0 -164.1,73.6 -164.1,164.1 0,90.5 73.6,164.1 164.1,164.1 90.4,0 164,-73.6 164,-164.1 0,-90.5 -73.6,-164.1 -164,-164.1" /><g
         transform="scale(1.0076)"
         id="g218"><path
           id="path220"
           style="fill:#c6b4e0;fill-opacity:1;fill-rule:nonzero;stroke:none"
           d="m 16286.3,10084.9 h -2755.7 c -7.6,0 -13.7,5.8 -13.7,12.9 0,7.1 6.1,12.9 13.7,12.9 h 2755.7 c 7.5,0 13.7,-5.8 13.7,-12.9 0,-7.1 -6.2,-12.9 -13.7,-12.9" /></g><path
         id="path222"
         style="fill:#5457aa;fill-opacity:1;fill-rule:nonzero;stroke:none"
         d="m 16187.4,13705.4 h -1235.1 c -42.6,0 -77.1,34.5 -77.1,77.1 v 851.9 c 0,42.5 34.5,77 77.1,77 h 1235.1 c 42.6,0 77.1,-34.5 77.1,-77 v -851.9 c 0,-42.6 -34.5,-77.1 -77.1,-77.1" /><path
         id="path224"
         style="fill:#c6b4e0;fill-opacity:1;fill-rule:nonzero;stroke:none"
         d="m 15977.1,14424 c 0,-79.4 -64.4,-143.7 -143.8,-143.7 -79.4,0 -143.7,64.3 -143.7,143.7 0,79.4 64.3,143.7 143.7,143.7 79.4,0 143.8,-64.3 143.8,-143.7" /><path
         id="path226"
         style="fill:#ffffff;fill-opacity:1;fill-rule:nonzero;stroke:none"
         d="m 16144.7,14424 c 0,-79.4 -64.3,-143.7 -143.7,-143.7 -79.4,0 -143.7,64.3 -143.7,143.7 0,79.4 64.3,143.7 143.7,143.7 79.4,0 143.7,-64.3 143.7,-143.7" /><path
         id="path228"
         style="fill:#ffffff;fill-opacity:1;fill-rule:nonzero;stroke:none"
         d="M 15210.6,14543.8 H 14995 c -13.2,0 -24,-10.8 -24,-24 0,-13.2 10.8,-24 24,-24 h 215.6 c 13.2,0 23.9,10.8 23.9,24 0,13.2 -10.7,24 -23.9,24" /><path
         id="path230"
         style="fill:#ffffff;fill-opacity:1;fill-rule:nonzero;stroke:none"
         d="m 15522,14430.8 h -527 c -13.2,0 -24,-10.7 -24,-23.9 0,-13.3 10.8,-24 24,-24 h 115.6 100 38.5 57.3 19.8 138.5 57.3 c 13.2,0 23.9,10.7 23.9,24 0,13.2 -10.7,23.9 -23.9,23.9" /><path
         id="path232"
         style="fill:#ffffff;fill-opacity:1;fill-rule:nonzero;stroke:none"
         d="m 15545.9,14519.8 c 0,13.2 -10.7,24 -23.9,24 h -215.6 c -13.3,0 -24,-10.8 -24,-24 0,-13.2 10.7,-24 24,-24 h 215.6 c 13.2,0 23.9,10.8 23.9,24" /><path
         id="path234"
         style="fill:#c6b4e0;fill-opacity:1;fill-rule:nonzero;stroke:none"
         d="m 14995,14016.8 h 215.6 v -143.7 H 14995 v 143.7" /><path
         id="path236"
         style="fill:#c6b4e0;fill-opacity:1;fill-rule:nonzero;stroke:none"
         d="m 15306.4,14016.8 h 215.6 v -143.7 h -215.6 v 143.7" /><path
         id="path238"
         style="fill:#c6b4e0;fill-opacity:1;fill-rule:nonzero;stroke:none"
         d="m 15617.8,14016.8 h 215.5 v -143.7 h -215.5 v 143.7" /><path
         id="path240"
         style="fill:#c6b4e0;fill-opacity:1;fill-rule:nonzero;stroke:none"
         d="m 15929.2,14016.8 h 215.5 v -143.7 h -215.5 v 143.7" /><g
         transform="scale(1.06515)"
         id="g242"><path
           id="path244"
           style="fill:#5457aa;fill-opacity:1;fill-rule:nonzero;stroke:none"
           d="m 15876,10213.9 c 88.5,-21.8 142.6,-111.5 120.9,-199.9 -21.8,-88.39 -111.6,-142.62 -199.9,-120.82 -88.5,21.79 -142.6,111.52 -120.9,199.92 21.8,88.3 111.6,142.6 199.9,120.8 z m -416.1,-175.7 c 1.3,-29.3 5.9,-58.34 13.7,-86.48 l -52.2,-40.38 c -17,-13.21 -21.4,-36.96 -10.4,-55.34 l 51.7,-85.47 c 11.1,-18.43 34.2,-25.5 53.8,-16.55 l 59.7,27.18 c 21.9,-21.12 46.4,-39.38 72.8,-54.51 l -8.3,-66.02 c -2.7,-21.4 10.9,-41.32 31.8,-46.45 l 97,-23.92 c 20.7,-5.13 42.1,6.14 49.7,26.34 l 22.5,60.13 c 32.4,0.43 64.6,5.07 95.9,13.73 l 38.8,-50.07 c 13.2,-17.04 37,-21.35 55.4,-10.38 l 85.4,51.65 c 18.4,11.14 25.5,34.21 16.5,53.83 l -25.7,56.86 c 22.3,23.12 41.5,48.86 57,76.91 l 59.5,-7.6 c 21.4,-2.69 41.3,11.01 46.5,31.81 l 23.8,96.98 c 5.2,20.75 -6.1,42.15 -26.2,49.75 l -55.4,20.7 c -0.5,31.7 -5.2,63 -13.6,93.3 l 46,35.7 c 17.1,13.2 21.4,37 10.5,55.4 l -51.6,85.2 c -11.2,18.5 -34.2,25.5 -53.8,16.6 l -51.4,-23.5 c -24,23.3 -50.8,43.2 -80,59.4 l 7.2,57.3 c 2.6,21.4 -11,41.3 -31.8,46.4 l -97,24 c -20.8,5.1 -42.1,-6.2 -49.7,-26.4 l -20.3,-54.1 c -34.3,-0.7 -68.2,-6.1 -101,-16.1 l -35.9,46.4 c -13.2,17.1 -37,21.4 -55.4,10.4 l -85.4,-51.7 c -18.4,-11.1 -25.6,-34.2 -16.6,-53.8 l 25.7,-56.5 c -21.6,-23.3 -40,-49.2 -54.9,-77.3 l -61.5,8 c -21.4,2.7 -41.3,-11 -46.4,-31.8 l -24,-97 c -5,-20.8 6.2,-42.2 26.4,-49.8 l 61.2,-22.8" /></g><g
         transform="scale(1.10447)"
         id="g246"><path
           id="path248"
           style="fill:#5457aa;fill-opacity:1;fill-rule:nonzero;stroke:none"
           d="m 15912.8,9025.85 c -71,11.22 -119.6,78.22 -108.3,149.21 11.2,71.04 78.2,119.67 149.2,108.3 71,-11.21 119.7,-78.21 108.3,-149.2 -11.3,-71.03 -78.3,-119.66 -149.2,-108.31 z m 334.5,312.42 -39.1,53.84 c -12.1,16.6 -34.6,21.5 -52.3,11.42 l -33.6,-18.81 c -20.3,16.8 -42.9,30.66 -66.9,41.43 l 1.6,39.49 c 0.8,20.4 -13.9,38.32 -34,41.61 l -65.7,10.4 c -20.2,3.15 -39.7,-9.17 -45.2,-28.9 l -10.7,-37.93 c -26.9,-2.83 -53.3,-9.29 -78.4,-19.38 l -27.2,29.66 c -14,15.06 -36.9,17.37 -53.4,5.34 l -53.9,-39.39 c -16.7,-12.02 -21.6,-34.59 -11.5,-52.36 l 21.1,-37.43 c -15.4,-19.81 -28.3,-41.41 -38.2,-64.38 l -42.8,1.74 c -20.4,0.88 -38.3,-13.82 -41.6,-33.95 l -10.4,-65.74 c -3.2,-20.17 9.2,-39.67 28.9,-45.2 l 43.7,-12.26 c 2.8,-22.97 8.4,-45.46 16.5,-67.22 l -33.8,-31.07 c -15,-13.9 -17.4,-36.77 -5.3,-53.36 l 39.1,-53.86 c 12,-16.58 34.6,-21.48 52.3,-11.41 l 39.8,22.28 c 18.7,-15.09 39.1,-27.94 60.9,-37.96 l -2,-46.39 c -0.8,-20.4 13.8,-38.32 33.9,-41.62 l 65.8,-10.39 c 20.2,-3.14 39.6,9.16 45.2,28.91 l 12.1,42.89 c 25.5,2.51 50.6,8.31 74.5,17.19 l 29.8,-32.28 c 13.9,-15.07 36.8,-17.37 53.3,-5.35 l 53.9,39.08 c 16.6,12.03 21.5,34.58 11.4,52.36 l -21.2,37.47 c 16,19.65 29.5,41.26 39.9,64.31 l 41.1,-1.66 c 20.4,-0.88 38.3,13.81 41.6,33.94 l 10.4,65.74 c 3.1,20.18 -9.2,39.66 -29,45.19 l -39,10.96 c -2.4,24.88 -8,49.2 -16.7,72.62 l 29.4,26.98 c 15.3,13.83 17.7,36.85 5.7,53.45" /></g><g
         transform="scale(1.05209)"
         id="g250"><path
           id="path252"
           style="fill:#5457aa;fill-opacity:1;fill-rule:nonzero;stroke:none"
           d="m 16016.6,9429.47 c 59.5,-15.38 95.2,-76.36 79.8,-135.9 -15.3,-59.55 -76.3,-95.28 -135.8,-79.9 -59.6,15.38 -95.4,76.36 -80,135.91 15.4,59.54 76.4,95.28 136,79.89 z m -280.2,19.2 c -21.3,2.97 -41.6,-10.52 -46.9,-31.37 l -10.7,-41.49 c -5.5,-20.81 5.6,-42.39 25.6,-50.14 l 29.7,-11.49 c 0.5,-19.83 3.3,-39.38 8.6,-58.47 l -25.7,-19.47 c -17.2,-13.05 -22,-36.65 -11.1,-55.22 l 21.8,-36.95 c 10.9,-18.58 33.9,-25.98 53.7,-17.25 l 29.2,12.88 c 14.7,-14.46 31,-27.04 48.7,-37.33 l -4.5,-32.38 c -3,-21.26 10.5,-41.51 31.4,-46.83 l 41.5,-10.76 c 20.8,-5.48 42.3,5.6 50.1,25.68 l 11.1,29 c 22.1,-0.01 43.6,2.85 64.9,8.43 l 18.5,-24.28 c 13,-17.17 36.7,-21.94 55.2,-10.99 l 37,21.77 c 18.5,10.94 25.9,33.9 17.2,53.67 l -12,27.21 c 15.4,15.41 28.5,32.58 39.2,51.39 l 28,-3.93 c 21.3,-2.98 41.5,10.53 46.8,31.37 l 10.8,41.5 c 5.5,20.8 -5.6,42.38 -25.7,50.12 l -25.7,10.03 c -0.2,21.31 -3,42.6 -8.4,63.12 l 21.7,16.3 c 17.1,13.04 21.9,36.63 10.9,55.21 l -21.8,36.96 c -10.9,18.57 -33.8,25.97 -53.6,17.24 l -23.6,-10.39 c -16,15.98 -34,29.65 -53.5,40.76 l 3.7,26.47 c 3,21.25 -10.5,41.51 -31.4,46.82 l -41.5,10.76 c -20.8,5.48 -42.3,-5.6 -50.1,-25.68 l -9.6,-24.85 c -23.1,-0.24 -46.1,-3.64 -68.3,-10.03 l -16.4,21.85 c -13,17.17 -36.6,21.94 -55.2,11 l -37.1,-21.9 c -18.6,-10.95 -26.1,-33.9 -17.3,-53.67 l 12,-27.04 c -14.7,-15.58 -27.5,-32.83 -37.7,-51.77 l -29.5,4.14" /></g><path
         id="path254"
         style="fill:#c6b4e0;fill-opacity:1;fill-rule:nonzero;stroke:none"
         d="m 810.828,14843.5 h 840.692 c 50.44,0 90.8,-41.5 90.8,-90.8 v -522.3 c 0,-50.5 -41.48,-90.8 -90.8,-90.8 H 1072 l -131.148,-132.3 c -5.598,-5.6 -12.329,-9 -20.172,-9 -15.696,0 -29.149,12.3 -29.149,29.2 v 112.1 h -80.703 c -50.441,0 -90.797,41.4 -90.797,90.8 v 522.3 c 0,50.4 41.477,90.8 90.797,90.8" /><path
         id="path256"
         style="fill:#5457aa;fill-opacity:1;fill-rule:nonzero;stroke:none"
         d="M 2423.43,15128.2 H 1299.54 c -67.43,0 -121.38,-55.4 -121.38,-121.4 v -698.3 c 0,-67.4 55.45,-121.4 121.38,-121.4 h 774.74 l 175.32,-176.8 c 7.5,-7.5 16.49,-12 26.98,-12 20.98,0 38.96,16.5 38.96,39 v 149.8 h 107.89 c 67.43,0 121.38,55.5 121.38,121.4 v 698.3 c 0,67.5 -55.44,121.4 -121.38,121.4" /><path
         id="path258"
         style="fill:#ffffff;fill-opacity:1;fill-rule:nonzero;stroke:none"
         d="m 1548.92,14684.4 c 0,-40.8 -33.1,-73.9 -73.93,-73.9 -40.82,0 -73.92,33.1 -73.92,73.9 0,40.8 33.1,73.9 73.92,73.9 40.83,0 73.93,-33.1 73.93,-73.9" /><path
         id="path260"
         style="fill:#ffffff;fill-opacity:1;fill-rule:nonzero;stroke:none"
         d="m 1935.41,14684.4 c 0,-40.8 -33.09,-73.9 -73.92,-73.9 -40.83,0 -73.93,33.1 -73.93,73.9 0,40.8 33.1,73.9 73.93,73.9 40.83,0 73.92,-33.1 73.92,-73.9" /><path
         id="path262"
         style="fill:#ffffff;fill-opacity:1;fill-rule:nonzero;stroke:none"
         d="m 2321.91,14684.4 c 0,-40.8 -33.1,-73.9 -73.93,-73.9 -40.83,0 -73.93,33.1 -73.93,73.9 0,40.8 33.1,73.9 73.93,73.9 40.83,0 73.93,-33.1 73.93,-73.9" /><path
         id="path264"
         style="fill:#e2e0f0;fill-opacity:1;fill-rule:nonzero;stroke:none"
         d="M 3755.17,760.398 C 2050.62,760.398 248.125,1014.5 54.7773,1491 c 0,0 -400.2773,565.9 963.9127,565.9 39.06,0 79.45,-0.5 121.45,-1.4 1353.25,-30.7 1406.94,-249.7 2446.96,-249.7 119.7,0 252.26,2.9 401.57,9.3 544.72,23.5 1185.87,64.3 1732.63,64.3 905.35,0 1552.17,-112 1075.81,-600.8 C 6455.01,927.598 5137.2,760.398 3755.17,760.398" /><path
         id="path266"
         style="fill:#f29490;fill-opacity:1;fill-rule:nonzero;stroke:none"
         d="m 5793.36,4576.6 c -2.2,11.5 -13.54,19.2 -25.5,17.3 -11.77,-2.3 -19.51,-13.7 -17.26,-25.5 l 114.58,-595.5 H 3521 c -6.69,0 -12.62,-3.1 -16.62,-7.9 l 116.1,603.4 c 2.24,11.8 -5.5,23.2 -17.74,25.6 -11.82,1.8 -22.79,-5.8 -25.04,-17.4 L 2995.03,1548.3 c -2.24,-11.8 5.5,-23.2 17.23,-25.5 1.4,-0.3 2.78,-0.4 4.17,-0.4 10.41,0 19.41,7.4 21.38,17.7 l 462.6,2404.2 c 2.86,-8.7 10.95,-15 20.59,-15 h 2352.56 l 459.7,-2389.2 c 1.97,-10.3 10.96,-17.7 21.38,-17.7 1.39,0 2.78,0.1 4.13,0.4 11.77,2.3 19.51,13.7 17.26,25.5 l -582.67,3028.3" /><path
         id="path268"
         style="fill:#fcd0c8;fill-opacity:1;fill-rule:nonzero;stroke:none"
         d="m 1787.35,7061.54 c 0,0 75.11,252.63 75.11,375.54 0,89.08 78.56,181.43 140.86,236.28 117.86,103.78 274.62,140.72 428.29,116.01 93.45,-15.03 224.04,-45.22 282.43,-124.98 74.51,-101.79 145.7,-242.06 104.34,-370.69 -13.79,-42.91 -26.13,-96.13 -52.97,-133.53 -3.17,-4.42 -8.51,-8.35 -11.32,-12.62 -22.67,-34.44 3.01,-101.82 6.07,-140.16 1.92,-23.94 13.76,-103.4 -20.3,-113.14 -47.8,-13.65 -27.31,23.9 -47.8,-13.67 -17.31,-31.73 -33.18,-64.33 -52.99,-94.63 -19.68,-30.1 -51.52,-49.62 -62.74,-84.4 -13.62,-42.18 -1.67,-191.3 -78.86,-179.43 -88.77,13.67 -215.08,198.02 -320.92,129.74 -105.83,-68.28 -119.49,-116.07 -119.49,-116.07 l -269.71,525.75" /><path
         id="path270"
         style="fill:#4c4d4e;fill-opacity:1;fill-rule:nonzero;stroke:none"
         d="m 3062.81,4690.9 v -21.3 c 0,-20.4 16.51,-36.9 36.87,-36.9 h 1919.5 l -411.04,64.3 -1545.33,-6.1" /><path
         id="path272"
         style="fill:#d8d9d9;fill-opacity:1;fill-rule:nonzero;stroke:none"
         d="m 4609.25,4697 454.06,1075.63 494.09,78.86 -538.22,-1218.79 -409.93,64.3" /><path
         id="path274"
         style="fill:#4c4d4e;fill-opacity:1;fill-rule:nonzero;stroke:none"
         d="m 5084.82,5738.07 c -14.34,-30.5 -406.28,-977.57 -406.28,-977.57 l 319.13,-18 456.97,1058.17 -369.82,-62.6" /><path
         id="path276"
         style="fill:#d8d9d9;fill-opacity:1;fill-rule:nonzero;stroke:none"
         d="m 4608.14,4697 -1545.33,-6.1 118.15,-38.5 c 40.06,-13.1 81.93,-19.7 124.06,-19.7 h 1715.1 l -411.98,64.3" /><path
         id="path278"
         style="fill:#4c4d4e;fill-opacity:1;fill-rule:nonzero;stroke:none"
         d="m 4411.62,4660.4 h -598.64 l 209.1,21.1 h 482.32 l -92.78,-21.1" /><path
         id="path280"
         style="fill:#4c4d4e;fill-opacity:1;fill-rule:nonzero;stroke:none"
         d="m 3687.51,4660.4 h -41.82 l 206.72,21.1 h 78.86 l -243.76,-21.1" /><path
         id="path282"
         style="fill:#f06e85;fill-opacity:1;fill-rule:nonzero;stroke:none"
         d="m 5067.28,4632.7 h 1597.93 c -7.92,-142.7 -221.96,-118.9 -221.96,-118.9 h -1132.2 -243.77 -2394.5 c 0,0 -214.05,-23.8 -221.97,118.9 h 2616.47" /><path
         id="path284"
         style="fill:#f29490;fill-opacity:1;fill-rule:nonzero;stroke:none"
         d="m 476.703,3769.4 c 0,0 -13.523,-155.6 57.938,-172.9 71.464,-17.2 340.816,48.5 330.929,172.9 -9.886,124.5 -6.828,240 -109.25,253.7 -102.422,13.6 -280.636,-214.7 -280.636,-214.7" /><path
         id="path286"
         style="fill:#f06e85;fill-opacity:1;fill-rule:nonzero;stroke:none"
         d="m 2535.79,3478.1 v 1.8 c 0,0 -5.35,-0.1 -15.18,-0.7 -9.82,0.6 -15.17,0.7 -15.17,0.7 v -1.8 C 2314.38,3462.7 1284.76,3312.6 1298.29,1875.7 h 83.18 c 35.94,54.6 14.11,1431.5 1139.14,1486.1 1125.04,-54.6 1103.22,-1431.5 1139.15,-1486.1 h 83.18 c 13.53,1436.9 -1016.09,1587 -1207.15,1602.4" /><path
         id="path288"
         style="fill:#f29490;fill-opacity:1;fill-rule:nonzero;stroke:none"
         d="m 1630.82,3070.5 v 1.7 c 0,0 -5.35,-0.1 -15.17,-0.7 -9.82,0.6 -15.17,0.7 -15.17,0.7 v -1.7 C 1409.41,3055 379.801,2904.9 393.324,1468 h 83.18 c 35.937,54.6 14.109,1431.5 1139.146,1486.1 C 2740.69,2899.5 2718.86,1522.6 2754.8,1468 h 83.17 C 2851.5,2904.9 1821.89,3055 1630.82,3070.5" /><path
         id="path290"
         style="fill:#f06e85;fill-opacity:1;fill-rule:nonzero;stroke:none"
         d="m 347.609,3368.6 c 0,0 -96.558,-183.3 74.137,-232.2 170.703,-48.8 2139.554,-158 2251.024,-137.5 111.48,20.4 238.16,224.3 238.13,225.2 L 387.609,3368.6 h -40" /><path
         id="path292"
         style="fill:#f29490;fill-opacity:1;fill-rule:nonzero;stroke:none"
         d="M 0.0976563,6413.34 C 35.75,5562.7 71.7969,4712.1 108.672,3861.5 c 4.183,-96.6 95.691,-165.5 189.617,-142.5 257.074,63 510.277,157.4 662.856,366.6 179.875,246.7 165.855,581.5 123.275,883.8 -61.36,435.65 -166.897,867.78 -350.068,1267.81 -65.719,143.52 -148.45,290.09 -286.461,366.68 -172.477,95.72 -323.84,15.91 -447.7933437,-108.38" /><path
         id="path294"
         style="fill:#f29490;fill-opacity:1;fill-rule:nonzero;stroke:none"
         d="m 2993.03,3168.9 c 0,0 -2133.135,177.9 -2543.967,144.1 -410.8364,-33.9 515.281,690.5 959.317,792 444.03,101.5 2081.68,135.3 1994.14,-45.1 -87.54,-180.5 -106.97,-812 -409.49,-891" /><path
         id="path296"
         style="fill:#fcd0c8;fill-opacity:1;fill-rule:nonzero;stroke:none"
         d="m 3221.15,5113.8 c 15.2,-2.3 440.6,-66.2 536.82,-80.6 96.22,-14.5 294.23,-178.7 336.38,-208.4 42.15,-29.7 -77.13,-99.8 -148.15,-55.5 -71.02,44.3 -75.83,81.3 -207.75,64.8 -131.93,-16.4 -264.88,-74.1 -362.36,-33.6 -97.49,40.5 -189.53,82.8 -189.53,82.8 l 30.03,200.1 4.56,30.4" /><path
         id="path298"
         style="fill:#fcd0c8;fill-opacity:1;fill-rule:nonzero;stroke:none"
         d="m 3197.08,4944.9 c 15.36,0 445.52,0 542.82,0 97.31,0 317.51,-133.1 363.6,-156.2 46.09,-23.1 -61.46,-110.1 -138.27,-76.9 -76.81,33.3 -87.06,69.2 -215.08,33.3 -128.03,-35.8 -250.93,-112.6 -353.35,-87 -102.42,25.6 -199.72,53.7 -199.72,53.7 v 202.3 30.8" /><path
         id="path300"
         style="fill:#f5b4b2;fill-opacity:1;fill-rule:nonzero;stroke:none"
         d="m 3195.8,4944.9 h -9.24 l 10.85,72 4.52,30.3 c 1.07,-0.2 4.16,-0.6 9.03,-1.4 l -15.16,-100.9" /><path
         id="path302"
         style="fill:#f5a5a0;fill-opacity:1;fill-rule:nonzero;stroke:none"
         d="m 3859.05,4912.9 c -45.72,18.8 -88.52,32 -119.15,32 -97.3,0 -527.46,0 -542.82,0 v 0 h -1.28 l 15.16,100.9 c 64.36,-9.6 438.33,-65.8 527.75,-79.2 32.04,-4.8 75.31,-26.2 120.34,-53.7" /><path
         id="path304"
         style="fill:#f5a5a0;fill-opacity:1;fill-rule:nonzero;stroke:none"
         d="m 3903.4,4884.3 c -67.6,32.6 -138.07,60.6 -182.72,60.6 h -523.6 c 15.36,0 445.52,0 542.82,0 30.63,0 73.43,-13.2 119.15,-32 14.71,-9 29.6,-18.6 44.35,-28.6" /><path
         id="path306"
         style="fill:#fcd0c8;fill-opacity:1;fill-rule:nonzero;stroke:none"
         d="m 3330.3,2116.9 c 0,-13.2 0,-164.4 0,-174.3 0,-9.8 240.04,-134.8 259.77,-138.1 19.73,-3.3 36.5,168.8 36.5,168.8 l 29.27,202.8 -325.54,-59.2" /><path
         id="path308"
         style="fill:#5457aa;fill-opacity:1;fill-rule:nonzero;stroke:none"
         d="m 3324.05,1973.3 c 0,0 -105.23,-197.3 -85.5,-401.2 19.73,-203.9 124.95,-144.7 230.18,-157.8 105.19,-13.2 92.08,39.4 92.08,39.4 2.33,-9.3 55.23,-24.5 63,-27.5 54.81,-21.2 111.67,-37.4 169.43,-48.3 73.15,-13.8 148.05,-17.3 222.29,-12.7 60.51,3.7 158.92,4.2 211.03,37.1 82.42,52.2 69.9,151.4 -7.29,198.3 -151.26,92.1 -376.68,57 -451.81,175.4 -75.13,118.4 -140.89,197.3 -140.89,197.3 0,0 -230.18,-39.5 -302.52,0" /><path
         id="path310"
         style="fill:#fcd0c8;fill-opacity:1;fill-rule:nonzero;stroke:none"
         d="m 2770.59,1814.2 c 0,-13.6 0,-170.7 0,-180.9 0,-10.3 249.22,-140 269.71,-143.4 20.48,-3.4 37.89,175.2 37.89,175.2 l 30.39,210.6 -337.99,-61.5" /><path
         id="path312"
         style="fill:#313b6a;fill-opacity:1;fill-rule:nonzero;stroke:none"
         d="m 3763.35,3207.6 c 0,-239.1 -77.84,-1146.4 -91.46,-1166.9 -6.35,-9.5 -70.26,-11.7 -142.98,-9.2 -83.78,2.9 -179.24,11.9 -212.11,22.8 -11.99,4 -19.15,38.6 -23.25,90.8 -0.62,7.6 -1.13,15.6 -1.54,23.9 -10.85,197.4 13.32,583.9 5.94,623.1 -1.13,6 -2.97,4 -5.73,-7.9 -27.25,-116.1 -98.33,-907.4 -139.3,-996.1 -10.34,-22.5 -31.64,-37.1 -59.2,-46.2 -81.42,-27 -217.53,-6.7 -289.02,-1.6 -95.57,6.8 -77.85,78.1 -70.99,173.6 0.62,8.1 1.54,18.9 2.67,32 12.19,139.9 51.11,546.3 -1.13,779.6 -0.82,3.8 -1.63,7.4 -2.45,11 -61.05,252.5 -14.14,662.2 -0.41,747.4 13.62,85.2 -320.99,92.4 -554.81,31 -233.83,-61.5 -1200.06,-27.4 -1281.486,68.2 -45.067,52.9 -63.399,225.3 -70.778,368.5 -5.933,115.4 -4.89,260.3 -4.89,260.3 0,0 0.082,-48.4 41.047,-27.9 40.972,20.5 1106.147,320.9 1358.807,355.1 252.58,34.1 887.58,-95.7 1133.39,-136.7 245.81,-40.9 341.47,-157 361.95,-279.9 20.49,-122.9 47.73,-676 47.73,-914.9" /><path
         id="path314"
         style="fill:#313c6a;fill-opacity:1;fill-rule:nonzero;stroke:none"
         d="m 1803.52,7111.04 c 0,0 -36.37,322.63 0,409.69 36.37,87.05 31.17,92.18 98.72,189.48 67.54,97.29 135.08,225.32 337.71,230.44 202.64,5.12 207.83,-46.09 285.77,-46.09 77.94,0 353.26,-90.47 394.83,-198.01 41.56,-107.55 25.77,-271.63 -41.78,-307.47 -67.54,-35.85 -223.06,100.92 -306.19,141.89 -83.13,40.96 -62.45,-15.37 -57.25,-61.45 5.19,-46.1 -31.18,-148.52 -67.55,-163.88 -36.37,-15.36 -88.99,5.13 -83.46,-46.08 5.53,-51.22 -67.21,-215.09 -67.21,-276.54 0,-61.45 62.35,-194.6 109.11,-168.99 46.76,25.6 140.13,111.58 207.83,102.42 67.4,-9.13 87.04,-20.26 87.04,-20.26 0,0 -10.14,-116.54 -69.03,-119.95 0,0 -118.46,49.73 -149.64,5.36 0,0 51.96,-47.81 103.92,-54.63 51.95,-6.83 24.24,-378.96 -200.91,-259.47 -225.14,119.5 -335.98,314.1 -263.24,437 72.74,122.9 100.45,119.49 121.23,177.53 20.78,58.03 55.42,187.77 3.46,221.91 -51.95,34.13 -135.08,71.69 -180.11,-30.73 -45.03,-102.42 -93.52,-242.39 -190.51,-204.85 -96.99,37.56 -72.74,42.68 -72.74,42.68" /><path
         id="path316"
         style="fill:#5457aa;fill-opacity:1;fill-rule:nonzero;stroke:none"
         d="m 1278.02,5632.5 c -30.32,61.56 -48.96,101.5 -50.19,104.26 22.74,-13.01 38.92,-51 50.19,-104.26" /><path
         id="path318"
         style="fill:#c6b4e0;fill-opacity:1;fill-rule:nonzero;stroke:none"
         d="m 3326.42,5100.7 c -44.04,14.1 -283.5,91.39 -379.06,137.79 -105.49,51.21 -298.35,116.05 -380.28,223.59 -81.94,107.54 -133.15,43.83 -169,170.42 -35.53,125.37 -166.43,543.44 -188.86,591.28 l -0.61,1.33 c -9.52,19.05 -51.11,67.6 -93,114.2 -22.36,24.98 -44.74,49.29 -62.35,68.21 -97.07,171.16 -387.33,520.87 -455.18,483.32 0,0 -476.25,-215.08 -578.67,-747.67 C 916.984,5610.59 718.867,4191.6 841.77,4140.4 c 32.468,-13.5 141.132,-38.8 284.52,-68.3 400.16,-82.3 1063.98,-140.9 1101.68,-125.8 51.21,20.4 76.81,588.9 81.93,665.7 0.21,2.7 0.31,6.4 0.31,11.4 0.1,5.2 0.15,11.8 0.16,19.4 163.15,-8.2 900.62,-44.7 930.94,-32.6 25.71,10.4 0.92,221.2 -18.64,338.4 -6.35,38.1 -12.09,66.4 -15.46,74.8 3.28,16.4 60.22,92.7 119.21,77.3" /><path
         id="path320"
         style="fill:#ffffff;fill-opacity:1;fill-rule:nonzero;stroke:none"
         d="m 1767.06,7095.68 c 0,0 -184.35,-204.84 -168.98,-204.84 15.36,0 430.16,-271.41 445.52,-588.92 l 148.51,174.12 c 0,0 -302.14,578.67 -425.05,619.64" /><path
         id="path322"
         style="fill:#5457aa;fill-opacity:1;fill-rule:nonzero;stroke:none"
         d="m 2289.04,4280.8 c -13.52,-162.2 -33.39,-323.8 -60.22,-334.5 -37.69,-15.1 -716.32,42.2 -1116.37,128.9 2.25,68.9 21.39,185.9 35.84,241.5 40.96,157.1 -122.91,423.4 -102.43,505.3 20.49,81.9 211.71,-54.6 232.19,88.8 16.18,113.1 42.92,523.15 0.82,721.74 111.84,-226.75 382.54,-747.44 531.77,-790.04 191.12,-54.6 464.27,-218.5 498.38,-218.5 l 2.04,-0.6 c 0,-4.9 -0.1,-8.7 -0.3,-11.4 -1.85,-27.8 -6.45,-120.6 -13.93,-228.4 l -7.79,-102.8" /><path
         id="path324"
         style="fill:#5457aa;fill-opacity:1;fill-rule:nonzero;stroke:none"
         d="m 2398.19,5446.71 c 35.85,-126.59 87.06,-62.89 168.99,-170.43 72.92,-95.65 531.25,-204.28 640.03,-252.88 -233.42,36.5 -820.39,128.44 -843.33,131.42 -38.82,5.12 -279.51,1135.12 -248.27,1184.48 41.89,-46.59 29.23,-105.39 38.75,-124.43" /><path
         id="path326"
         style="fill:#1e2745;fill-opacity:1;fill-rule:nonzero;stroke:none"
         d="m 3093.72,1741.9 c -81.42,-27 -217.53,-6.7 -289.02,-1.6 -95.57,6.8 -77.85,78.1 -70.99,173.6 0.62,8.1 1.54,18.9 2.67,32 12.19,139.9 51.11,546.3 -1.13,779.6 -0.82,3.8 -1.63,7.4 -2.45,11 -61.05,252.5 -14.14,662.2 -0.41,747.4 13.62,85.2 -320.99,92.4 -554.81,31 -233.83,-61.5 -1200.06,-27.4 -1281.486,68.2 -45.067,52.9 -63.399,225.3 -70.778,368.5 1.133,-22 41.075,-70.9 52.547,-89.9 35.332,-58.6 76.403,-110.1 126.387,-156.9 158.75,-148 448.39,-113.7 649.86,-111.7 320.67,3.2 640.84,13.4 961.11,13.4 189.48,0 340.64,-108.9 376.49,-108.9 35.85,0 -35.85,-76.9 -35.85,-112.7 0,-35.9 64.12,-35.9 73.03,-51.2 8.91,-15.4 -144.72,-20.5 -113.99,-138.3 30.72,-117.8 66.57,-184.3 30.72,-394.3 -35.85,-210 -92.17,-792.3 -40.96,-899.9 35.95,-75.6 174.22,-105.6 189.06,-159.3" /><path
         id="path328"
         style="fill:#1e2745;fill-opacity:1;fill-rule:nonzero;stroke:none"
         d="m 3528.91,2031.5 c -83.78,2.9 -179.24,11.9 -212.11,22.8 -11.99,4 -19.15,38.6 -23.25,90.8 0.92,11.2 0.71,19.8 -1.54,23.9 -10.85,197.4 13.32,583.9 5.94,623.1 30.32,358.3 90.64,980 90.64,995.4 0,0 51.21,-466 56.33,-676 5.12,-209.9 -30.72,-737.4 61.46,-993.4 12.9,-35.9 20.07,-64.4 22.53,-86.6" /><path
         id="path330"
         style="fill:#1e2745;fill-opacity:1;fill-rule:nonzero;stroke:none"
         d="m 3395.56,3828.9 c 0.19,60.6 -41.85,113.2 -88.33,152 -146.71,122.4 -366.73,150 -547.77,193.1 -33.19,7.9 -471.94,98.7 -471.27,106.8 2.87,34.7 5.43,69.5 7.79,102.8 185.78,-35.1 639.3,-126.2 853.47,-217.1 146.56,-62.3 242.04,-177.6 246.11,-337.6" /><path
         id="path332"
         style="fill:#5457aa;fill-opacity:1;fill-rule:nonzero;stroke:none"
         d="m 3743.07,1113.3 c -9.53,-15.2 -23.45,-29.3 -41.99,-41 -54.08,-34.2 -156.19,-34.7 -219.08,-38.6 -77.02,-4.7 -154.86,-1 -230.75,13.2 -60.02,11.3 -119.01,28.1 -175.96,50.1 -7.99,3.2 -62.99,19 -65.34,28.7 0,-0.1 13.62,-54.6 -95.66,-41 -109.18,13.7 -218.47,-47.8 -238.95,163.9 -1.85,19.1 -2.67,38 -2.56,56.6 0.82,190.1 91.36,359.8 91.36,359.8 75.07,-40.9 314.02,0 314.02,0 0,0 68.31,-81.9 146.36,-204.8 77.94,-122.9 311.97,-86.4 469.08,-182 62.79,-38.2 84.29,-109.7 49.47,-164.9" /><path
         id="path334"
         style="fill:#313c6a;fill-opacity:1;fill-rule:nonzero;stroke:none"
         d="m 3743.07,1113.3 c -9.53,-15.2 -23.45,-29.3 -41.99,-41 -54.08,-34.2 -156.19,-34.7 -219.08,-38.6 -77.02,-4.7 -154.86,-1 -230.75,13.2 -60.02,11.3 -119.01,28.1 -175.96,50.1 -7.99,3.2 -62.99,19 -65.34,28.7 0,-0.1 13.62,-54.6 -95.66,-41 -109.18,13.7 -218.47,-47.8 -238.95,163.9 -1.85,19.1 -2.67,38 -2.56,56.6 95.96,-36.7 542.11,-205.2 684.99,-211.3 136.73,-5.9 303.16,-14.2 385.3,19.4" /><path
         id="path336"
         style="fill:#313c6a;fill-opacity:1;fill-rule:nonzero;stroke:none"
         d="m 4266.45,1441.8 c -9.17,-14.7 -22.58,-28.2 -40.43,-39.5 -52.06,-32.9 -150.36,-33.4 -210.9,-37.1 -74.14,-4.6 -149.08,-1 -222.14,12.7 -57.78,10.8 -114.57,27 -169.39,48.2 -7.7,3.1 -60.64,18.2 -62.91,27.6 0,-0.1 13.12,-52.5 -92.09,-39.4 -105.1,13.1 -210.31,-46.1 -230.03,157.7 -1.77,18.4 -2.57,36.6 -2.46,54.6 92.38,-35.4 521.88,-197.6 659.42,-203.6 131.63,-5.6 291.86,-13.6 370.93,18.8" /><g
         transform="scale(1.03322)"
         id="g338"><path
           id="path340"
           style="fill:#f29490;fill-opacity:1;fill-rule:nonzero;stroke:none"
           d="m 16300,902.809 -283.8,1721.411 c -0.8,5.52 -6,9.19 -11.5,8.32 -5.5,-0.87 -9.2,-6.09 -8.3,-11.51 l 283.2,-1718.221 h 20.4" /></g><path
         id="path342"
         style="fill:#f29490;fill-opacity:1;fill-rule:nonzero;stroke:none"
         d="m 15795.3,932.801 292.6,1775.299 c 1,5.6 -2.9,11 -8.5,11.9 -5.7,0.9 -11,-2.9 -12,-8.6 L 15774.3,932.801 h 21" /><path
         id="path344"
         style="fill:#f06e85;fill-opacity:1;fill-rule:nonzero;stroke:none"
         d="m 16159.9,932.801 8.1,1806.899 c 0,5.7 -4.6,10.4 -10.3,10.4 h -0.1 c -5.7,0 -10.4,-4.6 -10.4,-10.3 l -8.1,-1806.999 h 20.8" /><g
         transform="scale(1.0122)"
         id="g346"><path
           id="path348"
           style="fill:#f06e85;fill-opacity:1;fill-rule:nonzero;stroke:none"
           d="m 16292.2,921.555 7.8,1739.775 c 0,5.73 -4.6,10.27 -10.3,10.37 v 0 c -5.7,0 -10.3,-4.64 -10.3,-10.28 l -7.8,-1739.865 h 20.6" /></g><g
         transform="scale(1.05315)"
         id="g350"><path
           id="path352"
           style="fill:#f06e85;fill-opacity:1;fill-rule:nonzero;stroke:none"
           d="m 16300,2747.48 c 0,-39.6 -48.2,-76.54 -131.4,-107.39 -104.6,-39.03 -264.4,-68.46 -452.6,-82.04 -6.4,-0.57 -13.1,-1.05 -19.8,-1.43 -9.9,-0.66 -19.9,-1.23 -29.9,-1.8 -6.6,-0.38 -13.2,-0.76 -19.8,-1.14 -53.6,-2.66 -109.2,-3.99 -166,-3.99 -43.8,0 -86.7,0.76 -128.7,2.37 -6.6,0.29 -13.2,0.48 -19.7,0.86 -19.9,0.76 -39.4,1.9 -58.6,3.13 -6.7,0.48 -13.1,0.76 -19.7,1.24 -197.2,13.76 -364,44.81 -469.9,86.03 -78,30.38 -122.9,65.99 -122.9,104.16 0,1.9 0.1,3.7 0.3,5.31 0.8,7.32 3.2,14.53 7.3,21.56 22.2,26.59 93.6,50.71 198.9,69.79 150.1,27.35 369,44.53 613,44.53 262.1,0 495.4,-19.84 645.4,-50.7 87.5,-18.14 146.8,-39.88 166.6,-63.62 4.1,-7.03 6.5,-14.24 7.3,-21.56 0.1,-1.61 0.2,-3.41 0.2,-5.31" /></g><g
         transform="scale(1.05315)"
         id="g354"><path
           id="path356"
           style="fill:#f29490;fill-opacity:1;fill-rule:nonzero;stroke:none"
           d="m 16300,2756.6 c 0,-1.24 -0.1,-2.57 -0.2,-3.81 -4.1,-23.64 -46.9,-45.67 -118.5,-64.66 -143.8,-38.17 -403.8,-63.71 -700.8,-63.71 -295.7,0 -555,25.35 -699.1,63.14 -72.6,19.19 -116.1,41.5 -120.1,65.23 -0.2,1.24 -0.3,2.57 -0.3,3.81 0,5.97 2.5,11.87 7.6,17.75 22.2,26.59 93.6,50.71 198.9,69.79 150.1,27.35 369,44.53 613,44.53 262.1,0 495.4,-19.84 645.4,-50.7 87.5,-18.14 146.8,-39.88 166.6,-63.62 5.1,-5.88 7.5,-11.78 7.5,-17.75" /></g><g
         transform="scale(1.02753)"
         id="g358"><path
           id="path360"
           style="fill:#f29490;fill-opacity:1;fill-rule:nonzero;stroke:none"
           d="m 16290.7,1414.16 c -1.8,0 -3.6,0.59 -5.2,1.85 l -746.4,606.02 c -3.5,2.82 -4,8.07 -1.1,11.58 2.9,3.6 8.1,4.09 11.7,1.26 l 746.2,-606.01 c 3.6,-2.92 4.1,-8.08 1.3,-11.68 -1.7,-2.05 -4.1,-3.02 -6.5,-3.02" /></g><g
         transform="scale(1.02139)"
         id="g362"><path
           id="path364"
           style="fill:#f29490;fill-opacity:1;fill-rule:nonzero;stroke:none"
           d="m 15539.9,1422.67 c -2.5,0 -4.9,0.97 -6.5,3.03 -2.9,3.62 -2.3,8.81 1.2,11.75 l 750.8,609.66 c 3.5,2.84 8.8,2.25 11.7,-1.27 2.9,-3.53 2.3,-8.82 -1.2,-11.66 l -750.8,-609.65 c -1.5,-1.28 -3.4,-1.86 -5.2,-1.86" /></g><g
         transform="scale(1.00017)"
         id="g366"><path
           id="path368"
           style="fill:#dfb8b7;fill-opacity:1;fill-rule:nonzero;stroke:none"
           d="m 15653.9,2994.5 c 0.1,0.1 0.2,0.2 0.3,0.3 158,28.8 388.5,46.9 645.4,46.9 0.1,0 0.3,0 0.4,0 -256.7,0 -487,-18.1 -644.9,-46.9 -0.4,-0.1 -0.8,-0.2 -1.2,-0.3" /></g><g
         transform="scale(1.00017)"
         id="g370"><path
           id="path372"
           style="fill:#d76e7b;fill-opacity:1;fill-rule:nonzero;stroke:none"
           d="m 16299.6,2763.44 c -311.4,0 -584.4,26.7 -736.1,66.49 0,0.1 0,0.2 0,0.3 0.3,-0.1 0.6,-0.2 0.9,-0.3 151.7,-39.79 424.5,-66.49 735.6,-66.49 -0.1,0 -0.3,0 -0.4,0" /></g><g
         transform="scale(1.04561)"
         id="g374"><path
           id="path376"
           style="fill:#d78180;fill-opacity:1;fill-rule:nonzero;stroke:none"
           d="m 15591.6,2643.34 c -297.6,0 -558.5,25.54 -703.6,63.6 -0.3,0.1 -0.6,0.2 -0.9,0.29 2.7,55.47 27.2,110.94 86.5,157.13 0.4,0.1 0.8,0.19 1.1,0.29 151.1,27.54 371.4,44.85 616.9,44.85 263.9,0 498.7,-19.98 649.7,-51.07 29.9,-42.27 58.7,-97.45 55.7,-150.91 -144.7,-38.45 -406.4,-64.18 -705.4,-64.18" /></g><g
         transform="scale(1.00531)"
         id="g378"><path
           id="path380"
           style="fill:#fcd0c8;fill-opacity:1;fill-rule:nonzero;stroke:none"
           d="m 16202.7,6120.07 c 2.2,-34.42 -15.9,-71.51 -41.5,-108.52 -46.4,-67.54 -117.1,-134.08 -132.8,-181.24 -24.3,-73 39.6,-214.95 39.6,-214.95 0,0 -29.5,-145.93 -114.7,-188.49 -5.1,-2.6 -10.9,-4.88 -17.2,-6.87 -95.9,-28.75 -332.5,25.57 -299,126.42 10.4,31.05 12.2,63.86 9.8,95.11 -6.4,76.48 -9.8,142.03 -9.8,142.03 -72.9,-56.7 -188.5,-38.39 -214.7,-16.11 -26.5,22.18 -75.1,76.99 -121.7,170.2 -46.6,93.31 -42.6,178.45 -40.3,216.84 2.2,38.59 11.9,36.51 0,91.33 -11.8,54.71 -10.4,188.69 0,196.65 8.1,42.61 18.9,84.91 31.4,126.41 12.5,41.56 23.7,84.48 45.5,122.36 24.8,43 55,57.8 103.6,62.79 148.2,15.22 321,56.52 461.3,-13.63 131.6,-58.64 190.5,-276.91 251.9,-310.17 145.9,-78.97 42.5,-212.78 48.6,-310.16" /></g><path
         id="path382"
         style="fill:#f8caca;fill-opacity:1;fill-rule:nonzero;stroke:none"
         d="m 16153.4,5645.19 v 0 0 0 c 0,0 -28.6,63.58 -40.4,127.69 11.8,-64.09 40.4,-127.67 40.4,-127.67 0,0 0,-0.01 0,-0.02 m -31.5,234.78 c 24.8,45.47 84.3,104.06 125.2,163.44 0,0.01 0,0.02 0,0.03 -40.9,-59.35 -100.3,-117.96 -125.2,-163.47" /><path
         id="path384"
         style="fill:#f6b1aa;fill-opacity:1;fill-rule:nonzero;stroke:none"
         d="m 16077.2,5588.09 c -1.4,34.42 -10.6,82.46 -20.1,169.24 -21.4,196.5 180,278.59 190,286.08 -40.9,-59.38 -100.4,-117.97 -125.2,-163.44 -3.5,-6.52 -6.3,-12.76 -8.3,-18.71 -8.2,-24.39 -6.5,-56.45 -0.6,-88.38 11.8,-64.11 40.4,-127.69 40.4,-127.69 v 0 c -26.1,-23.09 -51.6,-41.91 -76.2,-57.1" /><g
         transform="scale(1.01418)"
         id="g386"><path
           id="path388"
           style="fill:#1d2745;fill-opacity:1;fill-rule:nonzero;stroke:none"
           d="m 15867.7,6750.31 c 0,0 59.1,115.09 196.7,98.22 137.8,-16.86 235.6,-205.42 215.9,-292.55 -19.6,-87.12 -87.7,-154.6 -205.7,-86.8 -118,67.8 -206.9,257.83 -206.9,257.83 v 23.3" /></g><g
         transform="scale(1.00656)"
         id="g390"><path
           id="path392"
           style="fill:#1d2745;fill-opacity:1;fill-rule:nonzero;stroke:none"
           d="m 15258.4,6648.59 c 0,0 98.6,314.23 492.2,240.6 393.6,-73.62 498.4,-263.36 523.9,-424.77 25.5,-161.4 -90.6,-328.48 -90.6,-328.48 0,0 -17,218.05 -179.9,76.46 -84.1,-73.23 -176.6,128.09 -189.2,207.11 -12.7,79.02 -496.4,285.83 -556.4,229.08" /></g><path
         id="path394"
         style="fill:#1c233d;fill-opacity:1;fill-rule:nonzero;stroke:none"
         d="m 15314.6,6447.32 c 0,0 -87.7,338.88 251.5,373.09 339.2,34.2 353.5,-376.25 353.5,-376.25 l -222.4,5.7 -25.6,133.96 -6.2,-135.8 -196.2,-1.01 -19.9,74.11 -5.8,-71.26 -22.8,31.35 -5.7,-31.35 -100.4,-2.54" /><path
         id="path396"
         style="fill:#fcd0c8;fill-opacity:1;fill-rule:nonzero;stroke:none"
         d="m 14788.9,5642.76 -0.1,-0.49 c -1.6,-5.14 -3.5,-10.39 -5.5,-15.65 -4.7,-11.62 -8.5,-22.62 -11.5,-33.01 -19.7,-67.25 -9.1,-111.03 -6.7,-142.33 2.9,-36.18 -147.4,-27.75 -147.4,-27.75 l -9.3,38.88 c 0,0 -24.4,39.24 -57.7,81.8 -15.2,19.57 -32.2,39.74 -49.8,57.1 l -0.1,0.25 c -59.9,59.91 -72.6,148.56 -110,221.43 -34.4,67.01 -108.5,142.57 -40.9,218.14 67.4,75.07 165.8,-31.79 207.5,-84.13 10.9,-13.45 85.4,-148.93 102,-127.29 27.9,36.2 22.2,158.59 61.2,183.65 39.1,25.07 75.2,11.14 58.5,-38.87 -16.8,-50.13 -36.2,-89.13 -19.4,-133.64 11.2,-30.08 33.9,-78.01 36.8,-132.55 v -0.25 c 1.1,-21.02 -0.9,-42.92 -7.6,-65.29" /><path
         id="path398"
         style="fill:#f6b1aa;fill-opacity:1;fill-rule:nonzero;stroke:none"
         d="m 14601.1,5473.72 c -9.6,14.69 -28,41.84 -50.4,70.49 21.3,-15.38 49.9,-27.82 86.5,-27.83 14.7,0 30.6,1.99 47.9,6.56 43.7,11.61 70.4,38.76 86.7,70.67 -9,-30.73 -11.7,-56.57 -11.7,-78.55 0,-3.91 0.1,-7.71 0.2,-11.39 -1.6,0.05 -3.2,0.07 -4.9,0.07 -47.9,0 -117.5,-18.89 -154.3,-30.02" /><path
         id="path400"
         style="fill:#fcd0c8;fill-opacity:1;fill-rule:nonzero;stroke:none"
         d="m 14063.5,958.898 c -23.7,-21.199 -79.6,-174.8 -139.4,-310.796 -48.6,-110.801 -99.9,-209.801 -138.6,-216.301 -72.3,-12.102 -140.1,83.699 -190.7,121.597 -103.9,77.801 -230.8,96 -343.4,156.7 -76.7,41.203 -325.8,254.703 -130,298.902 67.4,15.3 131.9,6.2 194.4,-13.902 81,-25.899 158.4,-70.297 234.4,-104.598 36.8,-16.699 74.9,-38.699 114.3,-16.301 25.2,14.403 79.8,166.001 82.8,166.001 0,0 359.3,-43.098 316.2,-81.302" /><path
         id="path402"
         style="fill:#1e2745;fill-opacity:1;fill-rule:nonzero;stroke:none"
         d="m 13924.1,648.102 c -48.6,-110.801 -99.9,-209.801 -138.6,-216.301 -72.3,-12.102 -140.1,83.699 -190.7,121.597 -103.9,77.801 -230.8,96 -343.4,156.7 -76.7,41.203 -325.8,254.703 -130,298.902 67.4,15.3 131.9,6.2 194.4,-13.902 -19.4,-164.899 144,-184.797 340.4,-290.2 125,-67.097 215.2,-66.296 267.9,-56.796" /><path
         id="path404"
         style="fill:#fcd0c8;fill-opacity:1;fill-rule:nonzero;stroke:none"
         d="m 15846.2,455.5 c -50,-50 -156.9,-13.199 -217.8,-11.801 -125.2,2.602 -234.9,-54.199 -357.2,-69.801 -79.8,-10.296 -372.6,14.602 -283.5,144.102 4,5.801 8.6,11.602 13.7,17.301 44.4,49.797 100.1,78.898 160.4,98.097 78,25.204 163.6,33.801 242.5,49.602 38.2,7.5 80.4,11.699 98.7,51.5 11.7,25.301 -30.7,174.801 -28.2,176.5 0,0 305.9,167.8 293.5,113.6 -6.7,-29.799 35.7,-181.6 65.2,-321.702 v -0.199 l 0.3,-1.101 c 23.8,-113.797 38.9,-219.496 12.4,-246.098" /><path
         id="path406"
         style="fill:#1e2745;fill-opacity:1;fill-rule:nonzero;stroke:none"
         d="m 15846.2,455.5 c -50,-50 -156.9,-13.199 -217.8,-11.801 -125.2,2.602 -234.9,-54.199 -357.2,-69.801 -79.8,-10.296 -372.6,14.602 -283.5,144.102 4,5.801 8.6,11.602 13.7,17.301 44.4,49.797 100.1,78.898 160.4,98.097 77.3,-140.097 216.6,-64 429.7,-36.398 135.7,17.602 205.8,68.699 242,105.699 l 0.3,-1.101 c 23.8,-113.797 38.9,-219.496 12.4,-246.098" /><g
         transform="scale(1.04734)"
         id="g408"><path
           id="path410"
           style="fill:#313b6a;fill-opacity:1;fill-rule:nonzero;stroke:none"
           d="m 16194.3,2970.1 c -140.8,-249.29 -543.9,-222.94 -786.8,-264.38 -21.2,-3.63 -97.2,-13.09 -192.2,-27.41 -102.7,-15.56 -227.5,-36.95 -329,-62.92 -38.4,-9.83 -73.4,-20.34 -102.7,-31.41 -56.1,-21.2 -91,-44.68 -87.7,-69.7 15.7,-116.77 529.4,-1751.203 529.4,-1797.891 0,-24.922 -150,-34.373 -290.4,-24.825 -123.2,8.403 -239.1,31.411 -239.1,71.513 0.1,85.552 -171,664.353 -280,884.813 -105.6,213.4 -254.9,775.21 -264.1,810.06 l -0.2,0.57 -0.3,1.24 -0.3,-0.38 -739.2,-1641.879 c 0,0 -123.6,26.734 -243.6,65.501 -113.3,36.472 -223.4,83.735 -223.4,129.088 0,93.38 171.3,345.06 241.4,503.28 70,158.3 412.4,1238.76 568.2,1387.32 155.5,148.57 863.9,490.96 1011.7,553.22 147.9,62.35 247.2,116.77 259.9,466.99 l 178.6,10.98 207,12.6 339.4,20.82 184.8,11.26 c 0,0 5.6,-226.86 130.2,-382.59 123,-153.72 234.1,-438.44 128.4,-625.87" /></g><path
         id="path412"
         style="fill:#1e2745;fill-opacity:1;fill-rule:nonzero;stroke:none"
         d="m 15888.1,3547.9 -146,-43.9 c 47.7,17.2 115.8,48.6 162.8,99.3 46,49.5 -12.7,308 -70.4,516.8 l 216.8,13.2 c 0.1,-1.3 0.3,-2.8 0.4,-4.3 6.6,-93.2 6,-242.5 4.1,-359.2 -1.7,-102.6 -69.4,-192.3 -167.7,-221.9" /><g
         transform="scale(1.04734)"
         id="g414"><path
           id="path416"
           style="fill:#1e2745;fill-opacity:1;fill-rule:nonzero;stroke:none"
           d="m 16194.3,2970.1 c -140.8,-249.29 -543.9,-222.94 -786.8,-264.38 -21.2,-3.63 -97.2,-13.09 -192.2,-27.41 49.5,31.52 207.8,52.23 585.6,295.13 436,280.14 -62.2,910.6 -62.2,973.04 0,0 4.6,7.93 12.2,20.82 l 184.8,11.26 c 0,0 5.6,-226.86 130.2,-382.59 123,-153.72 234.1,-438.44 128.4,-625.87" /></g><path
         id="path418"
         style="fill:#1e2745;fill-opacity:1;fill-rule:nonzero;stroke:none"
         d="m 14735.7,2995.4 c -0.9,-4.5 -4.6,-21.7 -10.6,-49.4 3.8,27.7 9.1,45 10.6,49.4" /><path
         id="path420"
         style="fill:#1e2745;fill-opacity:1;fill-rule:nonzero;stroke:none"
         d="M 14820.8,2575.8 14046.6,856.199 c 0,0 -129.5,28 -255.2,68.602 -19.7,43.398 1.1,89.399 58.1,182.599 134.5,220.1 397.4,236 568.6,714.1 143.5,401.1 270,956 307,1124.5 -9.7,-71.1 -8.9,-210.5 95.7,-370.2" /><path
         id="path422"
         style="fill:#1e2745;fill-opacity:1;fill-rule:nonzero;stroke:none"
         d="m 14821.6,2574.7 v -0.4 l -0.2,0.6 z" /><path
         id="path424"
         style="fill:#1e2745;fill-opacity:1;fill-rule:nonzero;stroke:none"
         d="m 15946,750.301 c 0,-47 -272.5,-26.801 -302.9,-26 55.2,8.097 82.5,130.699 95.6,172.898 29.8,96.102 49.1,200.801 38.9,301.601 -10.6,104.4 -48.3,203.5 -75.9,304.1 -86.5,316.1 -190.4,627.7 -297.6,937.3 -1.6,4.7 -31.3,81.6 -29,83 -0.1,0 -81.4,-48.9 -40.7,16.3 40.7,65.2 8.2,69.3 -89.6,73.3 -97.9,4.1 -199.8,28.5 -77.6,53 122.3,24.4 175.4,-32.5 138.7,0 -36.7,32.6 -114.2,110 20.3,57.1 57.2,-22.5 112.2,-23.4 157.2,-16.6 -58.7,-22.2 -95.3,-46.8 -91.8,-73 C 15408,2511 15946,799.301 15946,750.301" /><g
         transform="scale(1.03252)"
         id="g426"><path
           id="path428"
           style="fill:#f8cb1a;fill-opacity:1;fill-rule:nonzero;stroke:none"
           d="m 16268.3,4906.95 c -31.4,-256.66 -19.6,-872.43 -106.5,-911.85 -86.9,-39.52 -1310.5,-19.76 -1334.2,0 -20.5,17.04 -5.5,119.9 -1.1,147.21 0.7,4.17 3.6,7.56 7.6,8.91 l 289.6,100.34 c 0,0 -0.9,1.26 -2.7,3.39 -20.9,26.63 -163.2,209.1 -163.2,249.39 0,0 -292.1,-566.68 -505.2,-532.1 -213.2,34.67 -335.5,1321.44 -335.5,1321.44 0,0 197.3,67.2 221,19.84 23.6,-47.46 201.3,-718.53 201.3,-718.53 0,0 148.5,310.8 260.4,486.29 34.2,53.37 64.9,94.23 87,109.83 94.8,67.11 342,220.72 342,220.72 l 0.1,-0.2 c 1,-0.96 7.3,-6.19 18.2,-13.06 l 0.4,-0.31 c 2,-1.15 4.1,-2.41 6.4,-3.77 57.3,-33.32 206.9,-89.58 390.8,72.93 0,0 89.9,-22.57 194.1,-51.72 96.5,-26.92 205.2,-59.37 266.2,-84.36 l 0.1,-0.1 c 16,-6.49 28.6,-12.39 37,-17.72 75,-47.46 157.9,-150.12 126.2,-406.57" /></g><path
         id="path430"
         style="fill:#dcaf12;fill-opacity:1;fill-rule:nonzero;stroke:none"
         d="m 15281,5246.48 c -9.4,-42.55 -25.3,-99.41 -43.8,-179.98 -39.6,-173.4 -179.2,-525.8 -179.2,-452.4 0,73.3 -45.9,130.3 -45.9,130.3 0,0 153.4,320.9 268.9,502.08" /><g
         transform="scale(1.00807)"
         id="g432"><path
           id="path434"
           style="fill:#dcaf12;fill-opacity:1;fill-rule:nonzero;stroke:none"
           d="m 15490.4,4354.67 c 0,0 651.9,80.94 753,97.11 0,0 16.1,362.88 56.6,434.1 0,0 -78.5,-237.48 -282.4,-389.65 -125,-93.25 -297,-120.03 -527.2,-141.56" /></g><path
         id="path436"
         style="fill:#dcaf12;fill-opacity:1;fill-rule:nonzero;stroke:none"
         d="m 15612.7,4393.3 c -21.6,27.5 -168.4,215.9 -168.4,257.5 0,0 103.9,-155 246,-167.2 114.8,-9.9 35.6,-73 -77.6,-90.3" /><g
         transform="scale(1.03252)"
         id="g438"><path
           id="path440"
           style="fill:#dcaf12;fill-opacity:1;fill-rule:nonzero;stroke:none"
           d="m 16268.3,4906.95 c -31.4,-256.66 -19.6,-872.43 -106.5,-911.85 -86.8,-39.52 -1310.5,-19.76 -1334.2,0 0,0 1082.6,-15.88 1197,90.65 114.4,106.63 193.5,406.68 189.4,592.15 -3.9,185.56 38.7,454.04 -108.9,653.34 16,-6.5 28.6,-12.43 37,-17.75 75,-47.38 157.9,-150.05 126.2,-406.54" /></g><g
         transform="scale(1.0033)"
         id="g442"><path
           id="path444"
           style="fill:#dcaf12;fill-opacity:1;fill-rule:nonzero;stroke:none"
           d="m 16300,5573.39 c -73.4,-63.98 -289.4,-151.5 -428.4,-115.31 -151.4,39.36 -179.4,93.29 -180.5,97.68 l 0.4,-0.31 c 1,-0.8 3.2,-2.09 6.6,-3.88 58.9,-34.29 212.9,-92.19 402.2,75.05 0,0 92.5,-23.22 199.7,-53.23" /></g><path
         id="path446"
         style="fill:#fcd0c8;fill-opacity:1;fill-rule:nonzero;stroke:none"
         d="m 15330.5,4121.4 c -28,-7.3 -67.7,-17.4 -108.6,-27.1 -57,-13.4 -122.6,13.7 -192,38.5 -22.7,8.2 -45.9,16 -69.3,22.3 -71.9,19 -93.5,9.1 -124.7,-6.9 -9.9,-5 -20.7,-10.7 -34.4,-16.4 -48.4,-19.8 -113.1,21.3 -110.3,44.1 0.4,3.9 3,7.2 8.1,9.6 13.5,6.4 47.5,25 87.8,45 61.4,30.3 137.6,64.1 181,64.1 37.2,0 140.5,-5.8 233.1,-11.4 41.1,-2.3 80.1,-4.8 110.1,-6.6 -2.2,-13.2 -6.9,-42.3 -9.1,-71.6 -2.5,-35 -1.8,-70.5 10.4,-80 1.6,-1.2 7.6,-2.5 17.9,-3.6" /><path
         id="path448"
         style="fill:#f6b1aa;fill-opacity:1;fill-rule:nonzero;stroke:none"
         d="m 15189.7,4090.7 c -46.7,0 -98,19.8 -151.7,39.2 -2.7,1 -5.4,2 -8.1,2.9 -22.7,8.2 -45.9,16 -69.3,22.3 -28,7.4 -48.3,10.4 -64.6,10.4 -17.5,0 -30.2,-3.5 -42.7,-8.9 -5.7,-2.4 -11.4,-5.3 -17.4,-8.4 -9.9,-5 -20.7,-10.7 -34.4,-16.4 -9,-3.6 -18.5,-5.2 -28,-5.2 -7.2,0 -14.5,0.9 -21.5,2.5 -22.7,5.2 -43.1,17.5 -53.5,29.7 -4.7,5.4 -7.3,10.8 -7.4,15.5 0,0.5 0.1,1 0.1,1.6 9,-9.5 21.8,-18.3 44.2,-18.3 12.3,0 27.5,2.7 46.7,9.3 50.2,17.4 80,35.3 121,35.3 21,0 45.1,-4.7 76.4,-16.7 48.3,-18.4 110.9,-31.6 169.2,-31.6 52.9,0 102.2,10.9 134.1,38.7 6.5,5.6 13,9.7 19.4,12.4 -0.7,-10 -1.2,-20 -1.2,-29.5 0,-23.6 2.9,-43.7 11.6,-50.5 1.6,-1.2 7.6,-2.5 17.9,-3.6 -0.5,-0.1 -1,-0.2 -1.4,-0.3 -27.9,-7.3 -67,-17.3 -107.2,-26.8 -10.5,-2.5 -21.2,-3.6 -32.2,-3.6" /><path
         id="path450"
         style="fill:#f29490;fill-opacity:1;fill-rule:nonzero;stroke:none"
         d="m 14788.9,5642.76 c 5.1,22.86 6.9,45.73 7.6,65.29 1.1,-21.02 -0.9,-42.92 -7.6,-65.29" /><g
         transform="scale(1.00833)"
         id="g452"><path
           id="path454"
           style="fill:#1c233d;fill-opacity:1;fill-rule:nonzero;stroke:none"
           d="m 16300,6487.93 v -0.11 c -17.2,-7.69 -36.8,-10.74 -59.3,-7.81 -24.2,113.63 -91.9,237.12 -273.4,322.15 7,10.28 18.9,25.55 36.1,40.47 129.9,-64.45 293.2,-179.55 296.6,-354.7" /></g><path
         id="path456"
         style="fill:#f6b1aa;fill-opacity:1;fill-rule:nonzero;stroke:none"
         d="m 15730,5671.5 v 0 c -6.4,76.89 -9.8,142.79 -9.8,142.79 0,0 218.1,99.9 232.3,183.41 14.3,83.69 12.3,101.99 12.3,101.99 0,0 38.7,-124.39 -14.2,-181.49 -38.7,-41.6 -148.5,-170.91 -220.6,-246.7" /><path
         id="path458"
         style="fill:#ffffff;fill-opacity:1;fill-rule:nonzero;stroke:none"
         d="m 15358.6,6365.2 c -67,0 -121.5,-54.5 -121.5,-121.49 0,-67.01 54.5,-121.51 121.5,-121.51 67,0 121.5,54.5 121.5,121.51 0,66.99 -54.5,121.49 -121.5,121.49 z m 0,-254.52 c -73.4,0 -133,59.68 -133,133.03 0,73.36 59.6,133.02 133,133.02 73.3,0 133,-59.66 133,-133.02 0,-73.35 -59.7,-133.03 -133,-133.03" /><path
         id="path460"
         style="fill:#ffffff;fill-opacity:1;fill-rule:nonzero;stroke:none"
         d="m 15690.3,6372.56 c -71.1,0 -128.9,-57.8 -128.9,-128.85 0,-71.06 57.8,-128.86 128.9,-128.86 71,0 128.8,57.8 128.8,128.86 0,71.05 -57.8,128.85 -128.8,128.85 z m 0,-269.94 c -77.8,0 -141.1,63.29 -141.1,141.09 0,77.79 63.3,141.08 141.1,141.08 77.8,0 141.1,-63.29 141.1,-141.08 0,-77.8 -63.3,-141.09 -141.1,-141.09" /><path
         id="path462"
         style="fill:#f06e85;fill-opacity:1;fill-rule:nonzero;stroke:none"
         d="m 13730.9,4108.6 h -1944.1 c 8.1,-146.7 228.2,-122.2 228.2,-122.2 h 1465.2 250.7 2308.9 c 0,0 220.1,-24.5 228.2,122.2 h -2537.1" /><path
         id="path464"
         style="fill:#fcd0c8;fill-opacity:1;fill-rule:nonzero;stroke:none"
         d="m 11041.5,9543.62 c -49.2,135.92 -159.4,235.1 -294.4,283.14 -82.1,29.22 -200.9,62.63 -283.3,24.07 -105.2,-49.19 -224.7,-130.94 -248.3,-253.08 -7.8,-40.74 -21.4,-89.16 -16.3,-131.23 0.6,-4.97 3.2,-10.5 3.6,-15.19 3,-37.83 -47.5,-80.87 -66.9,-110.47 -12.2,-18.47 -56.9,-77.38 -33.7,-100.31 32.5,-32.17 32.6,7.21 32.5,-32.19 0,-33.27 -1.6,-66.6 0.9,-99.83 2.6,-33.01 19.7,-62.85 13.3,-95.9 -7.6,-40.07 -83.2,-155.16 -15.7,-179.73 77.7,-28.25 261.3,64.68 316.5,-37.26 55.2,-101.95 45.1,-146.58 45.1,-146.58 l 40.3,25.78 c 49.6,-73.41 134.3,-142.15 152.8,-142.15 32.8,0 263.6,104.11 261.3,177.38 -2.9,91.31 23.4,196.08 35.8,287.98 11.3,83.38 17.3,169.69 46.4,248.94 5.5,14.89 11.6,29.63 19.3,43.56 39.4,71.91 16.8,181.22 -9.2,253.07" /><path
         id="path466"
         style="fill:#fcd0c8;fill-opacity:1;fill-rule:nonzero;stroke:none"
         d="m 8496.11,9424.3 c 0,-1.3 -0.1,-2.7 -0.1,-4.1 -3.5,-125.61 85.8,-209.8 112.8,-135.61 8.5,23.41 15.4,47.61 21.7,68.81 13.4,45.99 23.6,77.6 40.1,54.3 8.3,-11.8 7.2,-40.3 3,-77 v -0.1 c -7.8,-69.4 -26.19,-168 -11.9,-239 19.4,-96.2 233.6,-390.7 283.1,-457.81 6.6,-8.89 10.3,-13.79 10.3,-13.79 l -268.4,-375.7 c 0,0 -16,81.3 -39.8,188.9 -42.3,190.7 -109.3,464.09 -155.8,513.29 -72.8,76.91 -190.1,226.9 -194,385.31 -3.8,158.3 35.6,201.99 112.1,258.2 60.71,44.5 82,-9.4 86.3,-96.21" /><path
         id="path468"
         style="fill:#1e2745;fill-opacity:1;fill-rule:nonzero;stroke:none"
         d="m 10499.7,2250.9 c 0,0 184.3,-319.1 184.3,-377.4 0,-58.3 -283,-199.8 -333,-191.4 -49.9,8.3 -45.1,105.9 -99.8,66.5 -57.3,-41.2 -73.4,-124.8 -345.28,-158.1 -86.1,-10.6 -200.07,31.3 -215.06,105 -6.23,30.7 7.84,46.2 52.5,85 70.99,61.7 167.71,60 250.28,109.8 49.86,30.1 144.26,101.9 128.76,171.9 -16.7,74.9 327.4,155.5 377.3,188.7" /><path
         id="path470"
         style="fill:#1e2745;fill-opacity:1;fill-rule:nonzero;stroke:none"
         d="m 11258.4,2190 c 0,-25.2 74.9,-308.2 66.6,-358.1 -8.4,-50 -325.9,-52.7 -325.9,-27.8 0,25 -2.7,36.1 -69.3,36.1 -66.6,0 -270.8,-94.5 -387.3,-68.1 -116.5,26.5 -349.6,68.3 -224.7,134.8 124.8,66.5 307.9,66.5 366.2,124.8 58.3,58.2 119.8,191.4 119.8,191.4 l 454.6,-33.1" /><path
         id="path472"
         style="fill:#f8ca18;fill-opacity:1;fill-rule:nonzero;stroke:none"
         d="m 11384.8,5405.7 c -66.6,-310.8 -131.2,-77.71 -65.6,-777 65.6,-699.2 -100.9,-743.6 -78.6,-1098.7 22.1,-355.1 110.7,-599.3 77.6,-887.9 -33.3,-288.6 7,-432.8 -79.8,-455.1 -77.9,-20 -372.9,-120.5 -455.8,-3.5 -9.3,13.2 -16,29 -19.3,47.9 -10.2,57.5 -21.3,142.9 -33,239.4 -26.3,220.5 -54.9,499.1 -78.1,637.8 -33.2,199.5 -133.1,820.9 -133.1,998.6 v 733.6 c 0,27.3 0,43.2 0,43.2 0,0 -266.4,-721.4 -321.8,-954.5 -6.1,-25.6 -8.9,-53.4 -8.9,-83 0,-6.2 0.1,-12.5 0.4,-18.9 0.1,-5.1 0.4,-10.3 0.8,-15.5 v -0.2 c 0.1,-2.2 0.3,-4.5 0.5,-6.8 0.4,-5.5 0.9,-11 1.4,-16.6 v -0.2 c 0.7,-6.6 1.5,-13.3 2.4,-20 0.8,-6.7 1.8,-13.4 2.8,-20.2 1.4,-8.3 2.8,-16.7 4.3,-25.3 0.9,-4.7 1.8,-9.5 2.7,-14.4 20,-101.7 56.6,-215.3 93.9,-331.5 3.1,-9.9 6.3,-19.7 9.5,-29.6 2.3,-7.1 4.5,-14.1 6.7,-21.1 4,-12.8 8.1,-25.6 12.1,-38.4 3.1,-9.9 6.1,-19.8 9.2,-29.7 0.3,-1 0.6,-1.9 0.8,-2.8 2.6,-8.2 5,-16.5 7.5,-24.7 l 0.7,-2.3 c 4.4,-14.9 8.8,-29.7 13,-44.5 l 0.7,-2.5 c 4.6,-16.4 9.1,-32.7 13.4,-49 1.9,-7.4 3.8,-14.7 5.7,-22.1 l 0.5,-2.2 c 1.7,-6.6 3.3,-13.2 4.9,-19.8 1.6,-6.6 3.1,-13.2 4.6,-19.7 1.5,-6.6 2.9,-13.1 4.3,-19.6 4.3,-19.7 8,-39.2 11.2,-58.4 1,-5.2 1.8,-10.3 2.6,-15.5 1.1,-7.4 2.2,-14.8 3.2,-22.2 44.3,-333 44.3,-288.5 110.9,-421.7 66.6,-133.2 88.9,-299.7 33.3,-310.8 -2.4,-0.5 -4.9,-1.1 -7.6,-1.8 -1.3,-0.4 -2.7,-0.8 -4.1,-1.2 -4.3,-1.2 -8.9,-2.7 -13.8,-4.5 -5.2,-1.8 -10.7,-3.8 -16.4,-6 -3.7,-1.4 -7.6,-3 -11.5,-4.6 -3.2,-1.2 -6.4,-2.6 -9.7,-3.9 -3.7,-1.5 -7.5,-3.1 -11.3,-4.7 -2.8,-1.2 -5.8,-2.4 -8.7,-3.6 -1,-0.4 -1.9,-0.8 -2.9,-1.3 -6.2,-2.5 -12.4,-5.2 -18.8,-7.9 -5.8,-2.4 -11.8,-4.9 -17.7,-7.4 -12.5,-5.2 -25.1,-10.3 -37.6,-15.2 -4.1,-1.7 -8.3,-3.2 -12.4,-4.8 -41,-15.5 -79.4,-27.2 -104.9,-25.7 -66.6,3.9 -166.5,-118.2 -222.1,48.3 -55.39,166.5 -277.29,644.4 -332.89,932.6 -55.49,288.2 -199.8,510.1 -244.1,632.3 -44.4,122 55.4,843.4 88.7,1065.5 33.3,221.9 199.8,710.2 299.7,899 99.9,188.6 133.2,541.5 133.2,541.5 h 1243.09 c 0,0 210.7,-530.51 144.2,-841.2" /><path
         id="path474"
         style="fill:#dcaf12;fill-opacity:1;fill-rule:nonzero;stroke:none"
         d="m 10552.4,2220.3 c -2.4,-0.5 -4.9,-1.1 -7.6,-1.8 -1.3,-0.4 -2.7,-0.7 -4.1,-1.2 -4.3,-1.2 -8.9,-2.7 -13.8,-4.5 -5.1,-1.7 -10.6,-3.8 -16.4,-6 -3.7,-1.4 -7.6,-3 -11.5,-4.6 -3.2,-1.2 -6.4,-2.6 -9.7,-3.9 -3.7,-1.5 -7.5,-3.1 -11.3,-4.7 -3.8,-1.6 -7.7,-3.2 -11.6,-4.9 -6.2,-2.5 -12.4,-5.2 -18.8,-7.9 -5.8,-2.4 -11.8,-4.9 -17.7,-7.4 -12.5,-5.2 -25.1,-10.3 -37.6,-15.2 -4.1,-1.7 -8.3,-3.2 -12.4,-4.8 23.5,53.6 43.4,107.5 51.3,155.8 34.3,210.8 -78.6,199.8 -178.5,488.3 -99.9,288.5 -99.9,366.2 -166.5,810.2 -66.6,443.9 -266.28,210.8 0,699.2 266.4,488.3 177.6,610.4 345,666 167.4,55.4 114.2,-117.8 114.2,-117.8 0,0 -9.9,-23.3 -26.3,-62.8 v 48.5 c 0,27.3 0,43.2 0,43.2 0,0 -266.4,-721.4 -321.8,-954.5 -6.1,-25.6 -8.9,-53.4 -8.9,-83 0,-6.2 0.1,-12.5 0.4,-18.9 0.1,-5.1 0.4,-10.3 0.8,-15.5 v -0.2 c 0.1,-2.3 0.3,-4.5 0.5,-6.8 0.4,-5.5 0.9,-11 1.4,-16.6 v -0.2 c 0.7,-6.6 1.5,-13.2 2.4,-20 0.8,-6.6 1.8,-13.4 2.8,-20.2 1.4,-8.3 2.8,-16.7 4.3,-25.3 0.9,-4.8 1.8,-9.6 2.7,-14.4 20,-101.7 56.6,-215.3 93.9,-331.5 3.1,-9.9 6.3,-19.7 9.5,-29.6 2.3,-7.1 4.5,-14.1 6.7,-21.1 4,-12.8 8.1,-25.6 12.1,-38.4 3.1,-9.9 6.2,-19.8 9.2,-29.7 0.3,-1 0.6,-1.9 0.8,-2.8 2.6,-8.2 5,-16.5 7.5,-24.7 l 0.7,-2.3 c 4.4,-14.9 8.8,-29.7 13,-44.5 l 0.7,-2.5 c 4.6,-16.4 9.1,-32.7 13.4,-49 1.9,-7.4 3.8,-14.7 5.7,-22.1 l 0.5,-2.2 c 1.7,-6.6 3.3,-13.2 4.9,-19.8 1.6,-6.6 3.1,-13.2 4.6,-19.7 1.5,-6.6 2.9,-13.1 4.3,-19.6 4.3,-19.7 8,-39.2 11.2,-58.4 1,-5.2 1.8,-10.3 2.6,-15.5 1.1,-7.4 2.2,-14.8 3.2,-22.2 44.3,-333 44.3,-288.5 110.9,-421.7 66.6,-133.2 88.9,-299.7 33.3,-310.8" /><path
         id="path476"
         style="fill:#dcaf12;fill-opacity:1;fill-rule:nonzero;stroke:none"
         d="m 10519.1,4107.2 c 0,-177.7 99.9,-799.1 133.2,-998.6 23.1,-138.7 51.7,-417.3 78,-637.8 11.7,-96.5 22.8,-181.9 33,-239.4 3.3,-18.9 10,-34.8 19.3,-47.9 82.9,-117.1 377.9,-16.5 455.8,3.5 86.8,22.3 46.5,166.5 79.8,455.1 33.1,288.5 -55.5,532.8 -77.6,887.9 -22.3,355.1 144.2,399.5 78.6,1098.7 -65.6,699.25 -1,466.2 65.6,777 66.6,310.65 -144.2,841.23 -144.2,841.23 H 10874 c 6.5,-266.37 164,-993.89 -307,-1307.33 -27.2,-18.1 -33.1,-61 -47.9,-98.8 v -733.6" /><path
         id="path478"
         style="fill:#dcaf12;fill-opacity:1;fill-rule:nonzero;stroke:none"
         d="m 10377.4,3108 c 15,-329.5 46.5,-651 91.9,-918 34.3,14.3 64.3,26.6 83.1,30.3 55.6,11.1 33.3,177.6 -33.3,310.8 -66.6,133.2 -66.6,88.7 -110.9,421.7 -6.7,50.3 -17.5,102.2 -30.8,155.2" /><path
         id="path480"
         style="fill:#313c6a;fill-opacity:1;fill-rule:nonzero;stroke:none"
         d="m 8623.53,8386.86 c 7.34,-67.6 122.37,-292.51 228.92,-474.31 15.65,-26.47 30.97,-52.11 45.78,-76.08 116.53,-189.29 907.31,68.75 982.22,-17.31 41.62,-47.61 75.42,-484.46 94.41,-893.16 15.48,-328.3 9.74,-645.96 2.25,-722.54 -16.65,-171.97 61.49,-52.6 153.09,-58.92 91.5,-6.33 224.7,-10.99 283,0 58.3,10.98 216.4,14.81 308,18.31 46.3,1.83 100.9,13.99 153.3,19.48 51.6,5.49 100.9,4.33 138,-19.48 74.9,-48.12 224.8,5.16 283,82.57 58.3,77.42 33.3,232.24 33.3,335.45 0,14.99 2.4,28.98 7,41.97 22.2,61.59 97.6,103.04 234.6,143.83 32.5,9.66 68.4,19.31 108,29.14 241.4,60.26 116.6,197.77 108.2,455.82 -8.3,258.03 -74.9,782.62 -108.2,963.25 -33.3,180.46 -557.7,361.09 -657.6,395.55 -99.8,34.3 -58.2,171.98 -58.2,171.98 -32.8,-24.15 -152.9,-21.15 -264.7,-13.99 -86.8,5.82 -168.7,13.99 -201.5,13.99 -74.9,0 -24.9,-86.07 -116.5,-171.98 -91.6,-86.06 -158.2,0 -324.6,0 -166.52,0 -840.77,-266.7 -907.36,-258.04 -66.59,8.65 -166.48,300.99 -166.48,300.99 0,0 -366.25,-189.11 -357.93,-266.52" /><path
         id="path482"
         style="fill:#1e2745;fill-opacity:1;fill-rule:nonzero;stroke:none"
         d="m 10684.9,7160.08 c 266.4,-225.75 507.8,-217.42 366.2,-475.47 -121.7,-221.91 -286.5,-363.76 -176.6,-502.43 51.6,5.49 100.9,4.33 138,-19.48 74.9,-48.12 224.8,5.17 283,82.58 58.3,77.41 33.3,232.23 33.3,335.45 0,14.99 2.4,28.97 7,41.96 22.2,61.59 97.6,103.05 234.6,143.83 32.5,9.66 68.4,19.31 108,29.14 241.4,60.26 116.6,197.77 108.2,455.82 -8.3,258.04 -74.9,782.62 -108.2,963.25 -33.3,180.47 -557.7,361.1 -657.6,395.55 -99.8,34.3 -58.2,171.98 -58.2,171.98 -32.8,-24.14 -152.9,-21.15 -264.7,-13.98 66.1,-75.58 246.2,-339.63 153.5,-718.53 -99.9,-407.88 -432.9,-664.09 -166.5,-889.67" /><path
         id="path484"
         style="fill:#1e2745;fill-opacity:1;fill-rule:nonzero;stroke:none"
         d="m 10431.2,7017.72 c 0,0 215.1,-124.85 252.8,-274.69 37.7,-149.83 -211.3,-241.39 -203.4,-366.26 8,-124.85 83.3,183.14 79,320.48 -4.4,137.34 -144.1,262.21 -128.4,320.47" /><path
         id="path486"
         style="fill:#1e2745;fill-opacity:1;fill-rule:nonzero;stroke:none"
         d="m 8852.45,7912.55 c 15.65,-26.47 30.97,-52.11 45.78,-76.08 116.53,-189.29 907.31,68.75 982.22,-17.31 41.62,-47.61 75.42,-484.46 94.41,-893.16 34.34,182.79 66.14,299.25 98.24,537.32 41.6,307.98 -0.7,524.04 -221.26,507.39 -220.42,-16.65 -536.91,-137.24 -794.96,-120.59 -110.37,7.17 -164.47,29.47 -204.43,62.43" /><path
         id="path488"
         style="fill:#313c6a;fill-opacity:1;fill-rule:nonzero;stroke:none"
         d="m 10967.6,9004.94 c 11.8,4.44 21.2,13.64 25.6,25.49 32.1,85.7 165.4,449.39 160.2,554.38 -6,119.29 -125.3,95.43 -167,178.93 -41.8,83.5 -29.8,149.11 -173,167 -143.1,17.89 -464.7,32.2 -566.6,-209.19 -54.8,-129.68 92.9,-93.31 87,-158.92 -6,-65.61 53.4,-81.95 23.5,-99.84 -29.8,-17.9 -70.5,-127.06 -70.5,-198.63 0,-71.58 30.1,-207.6 -71.2,-225.49 -101.4,-17.89 -45.8,17.59 -69.6,35.48 -19.9,14.92 -64.4,-190.4 -59.5,-213.2 25.2,-115.63 160.5,-87.54 241.5,-56.39 155.2,59.7 92.2,128.83 50,255.4 -11.9,35.79 -62.5,289.38 12.8,323.85 102.7,47 132.6,1.7 128.8,-68.26 -1.9,-34.97 -11.4,-76.12 -18,-115.09 -8.6,-50.18 -12.4,-96.74 10.9,-121.83 75.7,-81.52 199.5,-169.47 455.1,-73.69" /><path
         id="path490"
         style="fill:#1e2745;fill-opacity:1;fill-rule:nonzero;stroke:none"
         d="m 8059.61,9648.47 320,-116.67 c 0,0 -5,-47.85 0,-68.93 -1.16,4.9 -33.08,15.58 -37.43,17.63 -29.51,13.89 -58.95,27.94 -88.44,41.87 -53.98,25.49 -108.17,50.52 -162,76.29 -17.19,8.22 -52.98,16.35 -57.17,37.86 -3.66,18.81 9.51,17.61 25.04,11.95" /><path
         id="path492"
         style="fill:#1e2745;fill-opacity:1;fill-rule:nonzero;stroke:none"
         d="m 8732.11,9411.8 c 0,0 -6.5,-109 -32.5,-95 -4.4,2.39 -13.7,7.3 -26,13.8 v 0.1 c -12,6.3 -26.9,14.2 -43.1,22.7 -48.3,25.5 -107.8,56.9 -134.4,70.9 0.6,24.49 0.6,47.99 -0.6,69.49 l 0.1,0.31 236.5,-82.3" /><path
         id="path494"
         style="fill:#fcd0c8;fill-opacity:1;fill-rule:nonzero;stroke:none"
         d="m 8585.51,9493.79 0.6,-69.49" /></g></g></svg>