<?xml version="1.0" encoding="iso-8859-1"?>
<!-- Generator: Adobe Illustrator 19.0.0, SVG Export Plug-In . SVG Version: 6.00 Build 0)  -->
<svg version="1.1" id="Layer_1" xmlns="http://www.w3.org/2000/svg" xmlns:xlink="http://www.w3.org/1999/xlink" x="0px" y="0px"
	 viewBox="0 0 512 512" style="enable-background:new 0 0 512 512;" xml:space="preserve">
<g>
	<g>
		<g>
			<rect x="133.565" y="150.261" width="244.87" height="22.261"/>
			<rect x="356.174" y="183.652" width="22.261" height="22.261"/>
			<rect x="133.565" y="183.652" width="22.261" height="22.261"/>
			<rect x="244.87" y="77.913" width="22.261" height="22.261"/>
			<rect x="278.261" y="77.913" width="22.261" height="22.261"/>
			<rect x="211.478" y="77.913" width="22.261" height="22.261"/>
			<rect x="178.087" y="77.913" width="22.261" height="22.261"/>
			<rect x="311.652" y="77.913" width="22.261" height="22.261"/>
			<path d="M459.458,479.918c-9.766,5.209-18.233,9.708-35.892,9.812l65.603-196.819c1.805-5.418-0.784-11.325-5.992-13.669
				l-60.22-27.098V144.696c0-18.412-14.979-33.391-33.391-33.391H372.87V55.652c0-6.147-4.983-11.13-11.13-11.13H267.13V0H244.87
				v44.522h-94.609c-6.147,0-11.13,4.983-11.13,11.13v55.652h-16.696c-18.412,0-33.391,14.979-33.391,33.391v107.441l-60.221,27.105
				c-5.209,2.344-7.797,8.251-5.99,13.669l65.603,196.818c-17.66-0.104-26.126-4.602-35.892-9.811
				c-10.933-5.83-23.325-12.439-46.977-12.439v22.261c18.087,0,26.621,4.551,36.501,9.821C53,505.391,65.391,512,89.044,512
				c6.261,0,11.602-0.414,16.322-1.263c13.658-2.149,22.685-6.958,30.651-11.203c9.864-5.256,18.382-9.795,36.398-9.795
				c18.087,0,26.62,4.551,36.501,9.821C219.848,505.391,232.24,512,255.892,512s36.044-6.609,46.977-12.439
				c9.88-5.27,18.414-9.821,36.501-9.821c18.079,0,26.624,4.539,36.518,9.796c7.991,4.244,17.043,9.053,30.75,11.202
				c4.718,0.85,10.057,1.263,16.318,1.263c23.652,0,36.044-6.609,46.977-12.439c9.881-5.27,18.414-9.821,36.501-9.821v-22.261
				C482.783,467.478,470.391,474.087,459.458,479.918z M464.869,295.413l-7.981,23.943L267.13,232.169v-25.738L464.869,295.413z
				 M161.391,66.783h189.217v44.522H161.391V66.783z M111.304,144.696c0-6.137,4.993-11.13,11.13-11.13h27.826h211.478h27.826
				c6.137,0,11.13,4.993,11.13,11.13v97.429l-140.129-63.057c-2.905-1.308-6.231-1.309-9.135,0l-140.128,63.052V144.696z
				 M47.132,295.413l197.738-88.981v25.738L55.112,319.356L47.132,295.413z M401.136,486.622c-5.407-1.759-9.886-4.132-14.806-6.745
				c-10.938-5.811-23.337-12.398-46.961-12.398c-23.652,0-36.044,6.609-46.977,12.439c-9.882,5.27-18.414,9.822-36.501,9.822
				s-26.621-4.551-36.501-9.822c-10.932-5.83-23.325-12.439-46.977-12.439c-23.576,0-35.949,6.593-46.865,12.409
				c-4.884,2.602-9.332,4.965-14.689,6.719L62.192,340.6l182.677-83.932v132.897h22.261V256.668l182.677,83.933L401.136,486.622z"/>
		</g>
	</g>
</g>
<g>
</g>
<g>
</g>
<g>
</g>
<g>
</g>
<g>
</g>
<g>
</g>
<g>
</g>
<g>
</g>
<g>
</g>
<g>
</g>
<g>
</g>
<g>
</g>
<g>
</g>
<g>
</g>
<g>
</g>
</svg>
