<svg height="512pt" viewBox="0 0 512.00008 512" width="512pt" xmlns="http://www.w3.org/2000/svg"><path d="m510.871094 497.386719-83.644532-161.011719 15.1875-12.707031c2.273438-1.902344 3.585938-4.710938 3.585938-7.671875v-241.496094c0-41.078125-33.421875-74.5-74.5-74.5h-231c-41.078125 0-74.5 33.421875-74.5 74.5v34.5c0 5.519531 4.480469 10 10 10 5.523438 0 10-4.480469 10-10v-34.5c0-30.050781 24.449219-54.5 54.5-54.5h231c30.050781 0 54.5 24.449219 54.5 54.5v236.824219l-78.484375 65.671875h-28.515625v-14.5c0-5.519532-4.476562-10-10-10s-10 4.480468-10 10v14.5h-30.375v-14.5c0-5.519532-4.476562-10-9.996094-10-5.523437 0-10 4.480468-10 10v14.5h-30.375v-14.5c0-5.519532-4.476562-10-10-10-5.519531 0-10 4.480468-10 10v14.5h-33.769531l-78.484375-65.671875v-108.324219c0-5.523438-4.476562-10-10-10-5.519531 0-10 4.476562-10 10v113c0 2.960938 1.3125 5.769531 3.585938 7.667969l15.1875 12.707031-83.644532 161.011719c-2.546875 4.898437-.636718 10.9375 4.261719 13.484375 1.476563.765625 3.050781 1.125 4.601563 1.125 3.613281 0 7.105468-1.960938 8.882812-5.390625l81.605469-157.085938 13.820312 11.5625-52.636719 137.335938c-1.976562 5.15625.601563 10.9375 5.757813 12.917969 1.179687.449218 2.386719.664062 3.578125.664062 4.019531 0 7.8125-2.445312 9.339844-6.425781l10.570312-27.578125h254.089844c5.519531 0 10-4.476563 10-10 0-5.523438-4.480469-10-10-10h-246.425781l7.703125-20.09375c.425781.054687.851562.09375 1.292968.09375h296.511719c.554688 0 1.09375-.054688 1.621094-.140625l25.957031 67.71875c1.527344 3.980469 5.316406 6.425781 9.339844 6.425781 1.191406 0 2.398438-.214844 3.578125-.664062 5.15625-1.980469 7.734375-7.761719 5.757813-12.917969l-52.636719-137.335938 13.820312-11.5625 81.605469 157.085938c1.78125 3.429687 5.269531 5.390625 8.882812 5.390625 1.550782 0 3.128907-.359375 4.601563-1.125 4.898437-2.546875 6.808594-8.582032 4.261719-13.484375zm-112.777344-79.390625h-284.1875l16.613281-43.34375 23.917969 20.015625c1.796875 1.503906 4.070312 2.328125 6.417969 2.328125h190.292969c2.347656 0 4.617187-.824219 6.414062-2.328125l23.917969-20.015625zm0 0"/><path d="m386 457.996094c-2.632812 0-5.210938 1.070312-7.070312 2.929687-1.859376 1.863281-2.929688 4.441407-2.929688 7.070313 0 2.632812 1.066406 5.210937 2.929688 7.070312 1.859374 1.859375 4.4375 2.929688 7.070312 2.929688 2.628906 0 5.207031-1.070313 7.066406-2.929688 1.863282-1.859375 2.933594-4.4375 2.933594-7.070312 0-2.628906-1.070312-5.207032-2.933594-7.070313-1.859375-1.859375-4.4375-2.929687-7.066406-2.929687zm0 0"/><path d="m398 102c0-16.542969-13.457031-30-30-30h-224c-16.539062 0-30 13.457031-30 30v88c0 16.542969 13.460938 30 30 30h224c16.542969 0 30-13.457031 30-30zm-264 88v-88c0-5.515625 4.488281-10 10-10h102v108h-102c-5.511719 0-10-4.488281-10-10zm244 0c0 5.511719-4.488281 10-10 10h-102v-108h102c5.511719 0 10 4.484375 10 10zm0 0"/><path d="m147.667969 314c18.746093 0 34-15.253906 34-34 0-18.75-15.253907-34-34-34-18.746094 0-34 15.25-34 34 0 18.746094 15.253906 34 34 34zm0-48c7.71875 0 14 6.277344 14 14 0 7.71875-6.28125 14-14 14s-14-6.28125-14-14c0-7.722656 6.28125-14 14-14zm0 0"/><path d="m364 246c-18.75 0-34 15.25-34 34 0 18.746094 15.25 34 34 34 18.746094 0 34-15.253906 34-34 0-18.75-15.253906-34-34-34zm0 48c-7.722656 0-14-6.28125-14-14 0-7.722656 6.277344-14 14-14 7.71875 0 14 6.277344 14 14 0 7.71875-6.28125 14-14 14zm0 0"/><path d="m309 246.125h-100.746094c-5.519531 0-10 4.476562-10 10s4.480469 10 10 10h100.746094c5.523438 0 10-4.476562 10-10s-4.476562-10-10-10zm0 0"/><path d="m309 294h-100.746094c-5.519531 0-10 4.476562-10 10 0 5.519531 4.480469 10 10 10h100.746094c5.523438 0 10-4.480469 10-10 0-5.523438-4.476562-10-10-10zm0 0"/><path d="m76 164.328125c2.632812 0 5.210938-1.058594 7.070312-2.929687 1.859376-1.859376 2.929688-4.429688 2.929688-7.070313 0-2.628906-1.070312-5.207031-2.929688-7.066406-1.859374-1.863281-4.4375-2.933594-7.070312-2.933594-2.628906 0-5.207031 1.070313-7.070312 2.933594-1.859376 1.859375-2.929688 4.4375-2.929688 7.066406 0 2.640625 1.070312 5.210937 2.929688 7.070313 1.863281 1.871093 4.441406 2.929687 7.070312 2.929687zm0 0"/></svg>